<svg width="32" height="24" viewBox="0 0 32 24" fill="none" xmlns="http://www.w3.org/2000/svg">
  <path
    d="M14.5442 6.02976C14.5442 7.2219 14.1817 8.26486 13.6436 8.98696C13.1053 9.7094 12.4409 10.0591 11.7966 10.0591C11.1527 10.0591 10.4885 9.70947 9.95014 8.98697C9.41206 8.26485 9.04944 7.22187 9.04944 6.02976C9.04944 4.83772 9.41206 3.7946 9.95018 3.07231C10.4886 2.34963 11.1528 2 11.7966 2C12.4408 2 13.1051 2.34971 13.6435 3.07235C14.1816 3.79463 14.5442 4.83774 14.5442 6.02976Z"
    stroke="black" stroke-width="2" />
  <path
    d="M22.1062 16.5432L22.1062 16.5432C22.1016 16.537 22.0962 16.5297 22.0901 16.5215C22.03 16.4405 21.8992 16.2643 21.8158 16.0852C21.1318 14.6222 19.1721 12.7506 15.8561 12.7022L15.7202 12.7014C12.4604 12.7024 10.5194 14.4677 9.76595 16.0165L9.76428 16.02L9.76427 16.02C9.67499 16.2017 9.52568 16.3779 9.47247 16.4407C9.46759 16.4465 9.46352 16.4513 9.46038 16.455L9.45728 16.4587L9.45727 16.4587C9.37366 16.558 9.32398 16.6214 9.28813 16.6773L9.28737 16.6785C8.6129 17.7277 8.29255 18.8751 8.33962 19.8915L8.33965 19.8921C8.38862 20.9633 8.82241 21.7009 9.44503 22.1015L22.1062 16.5432ZM22.1062 16.5432L22.1094 16.5475M22.1062 16.5432L22.1094 16.5475M22.1094 16.5475C22.1985 16.6676 22.2548 16.7475 22.2965 16.8209C22.9468 17.9655 23.171 19.1673 23.0496 20.1604C22.9281 21.1542 22.4784 21.8676 21.8441 22.2279L21.8441 22.228C21.6328 22.348 21.4276 22.4 21.2242 22.4C20.6831 22.4 20.1186 22.0672 19.1664 21.4396L19.1658 21.4392L19.1323 21.4171C18.5766 21.0514 17.9276 20.6243 17.1797 20.2941L17.1416 20.2773L17.1022 20.2637C16.9835 20.2227 16.857 20.2026 16.7916 20.1927C16.7023 20.1792 16.5978 20.1671 16.483 20.1568C16.2525 20.1363 15.9577 20.1214 15.6207 20.1214C15.3372 20.1214 15.0999 20.132 14.9143 20.1476C14.7704 20.1597 14.5595 20.1815 14.3936 20.2361L14.3581 20.2479M22.1094 16.5475L14.3581 20.2479M14.3581 20.2479L14.3235 20.2622M14.3581 20.2479L14.3235 20.2622M14.3235 20.2622C13.5565 20.5804 12.8756 21 12.2874 21.3626L12.2672 21.3751C12.2672 21.3751 12.2672 21.3751 12.2671 21.3751C11.2485 22.0014 10.687 22.3124 10.133 22.3124C9.90057 22.3124 9.6742 22.2487 9.44524 22.1017L14.3235 20.2622Z"
    stroke="black" stroke-width="2" />
  <path
    d="M22.5125 6.02976C22.5125 7.22185 22.1499 8.26483 21.6118 8.98697C21.0734 9.70952 20.4092 10.0591 19.7655 10.0591C19.1211 10.0591 18.4567 9.70937 17.9184 8.98694C17.3803 8.26485 17.0177 7.2219 17.0177 6.02976C17.0177 4.83769 17.3803 3.79459 17.9184 3.07234C18.4568 2.34974 19.1212 2 19.7655 2C20.4091 2 21.0733 2.34959 21.6117 3.07233C22.1499 3.79465 22.5125 4.83778 22.5125 6.02976Z"
    stroke="black" stroke-width="2" />
  <path
    d="M23.9672 12.3872C23.9672 10.4676 25.0584 9.47656 25.9198 9.47656C26.7813 9.47656 27.8731 10.4681 27.8731 12.3872C27.8731 14.3052 26.7807 15.2971 25.9198 15.2971C25.059 15.2971 23.9672 14.3055 23.9672 12.3872Z"
    stroke="black" stroke-width="2" />
  <path
    d="M5.95296 9.47656C6.81373 9.47656 7.90565 10.4679 7.90565 12.3872C7.90565 14.3055 6.81388 15.2971 5.95296 15.2971C5.09194 15.2971 4 14.3054 4 12.3872C4 10.468 5.09203 9.47656 5.95296 9.47656Z"
    stroke="black" stroke-width="2" />
</svg>