<svg width="33" height="24" viewBox="0 0 33 24" fill="none" xmlns="http://www.w3.org/2000/svg">
<path d="M28.2548 10V11C28.8071 11 29.2548 10.5523 29.2548 10H28.2548ZM28.2548 14H29.2548C29.2548 13.4477 28.8071 13 28.2548 13V14ZM4.77954 14V13C4.22726 13 3.77954 13.4477 3.77954 14H4.77954ZM4.77954 10H3.77954C3.77954 10.5523 4.22726 11 4.77954 11V10ZM21.4297 5C21.4297 4.44772 20.982 4 20.4297 4C19.8774 4 19.4297 4.44772 19.4297 5H21.4297ZM19.4297 7C19.4297 7.55228 19.8774 8 20.4297 8C20.982 8 21.4297 7.55228 21.4297 7H19.4297ZM21.4297 11C21.4297 10.4477 20.982 10 20.4297 10C19.8774 10 19.4297 10.4477 19.4297 11H21.4297ZM19.4297 13C19.4297 13.5523 19.8774 14 20.4297 14C20.982 14 21.4297 13.5523 21.4297 13H19.4297ZM21.4297 17C21.4297 16.4477 20.982 16 20.4297 16C19.8774 16 19.4297 16.4477 19.4297 17H21.4297ZM19.4297 19C19.4297 19.5523 19.8774 20 20.4297 20C20.982 20 21.4297 19.5523 21.4297 19H19.4297ZM7.38791 4C6.46694 4 5.59639 4.28511 4.93503 4.79222C4.27268 5.30009 3.77954 6.07184 3.77954 7H5.77954C5.77954 6.82359 5.87031 6.59534 6.15199 6.37936C6.43468 6.1626 6.86831 6 7.38791 6V4ZM25.6465 4H7.38791V6H25.6465V4ZM29.2548 7C29.2548 6.07184 28.7617 5.30009 28.0993 4.79222C27.438 4.28511 26.5674 4 25.6465 4V6C26.1661 6 26.5997 6.1626 26.8824 6.37936C27.1641 6.59534 27.2548 6.82359 27.2548 7H29.2548ZM29.2548 10V7H27.2548V10H29.2548ZM26.6465 12C26.6465 11.8236 26.7372 11.5953 27.0189 11.3794C27.3016 11.1626 27.7352 11 28.2548 11V9C27.3339 9 26.4633 9.28511 25.802 9.79222C25.1396 10.3001 24.6465 11.0718 24.6465 12H26.6465ZM28.2548 13C27.7352 13 27.3016 12.8374 27.0189 12.6206C26.7372 12.4047 26.6465 12.1764 26.6465 12H24.6465C24.6465 12.9282 25.1396 13.6999 25.802 14.2078C26.4633 14.7149 27.3339 15 28.2548 15V13ZM29.2548 17V14H27.2548V17H29.2548ZM25.6465 20C26.5674 20 27.438 19.7149 28.0993 19.2078C28.7617 18.6999 29.2548 17.9282 29.2548 17H27.2548C27.2548 17.1764 27.1641 17.4047 26.8824 17.6206C26.5997 17.8374 26.1661 18 25.6465 18V20ZM7.38791 20H25.6465V18H7.38791V20ZM3.77954 17C3.77954 17.9282 4.27268 18.6999 4.93503 19.2078C5.59639 19.7149 6.46694 20 7.38791 20V18C6.86831 18 6.43468 17.8374 6.15199 17.6206C5.87031 17.4047 5.77954 17.1764 5.77954 17H3.77954ZM3.77954 14V17H5.77954V14H3.77954ZM6.38791 12C6.38791 12.1764 6.29714 12.4047 6.01545 12.6206C5.73277 12.8374 5.29914 13 4.77954 13V15C5.70051 15 6.57106 14.7149 7.23241 14.2078C7.89477 13.6999 8.38791 12.9282 8.38791 12H6.38791ZM4.77954 11C5.29914 11 5.73277 11.1626 6.01545 11.3794C6.29714 11.5953 6.38791 11.8236 6.38791 12H8.38791C8.38791 11.0718 7.89477 10.3001 7.23241 9.79222C6.57106 9.28511 5.70051 9 4.77954 9V11ZM3.77954 7V10H5.77954V7H3.77954ZM19.4297 5V7H21.4297V5H19.4297ZM19.4297 11V13H21.4297V11H19.4297ZM19.4297 17V19H21.4297V17H19.4297Z" fill="#111826"/>
</svg>
