<svg width="208" height="89" viewBox="0 0 208 89" fill="none" xmlns="http://www.w3.org/2000/svg">
<path d="M177.133 10.4788C177.133 10.8674 177.235 11.256 177.303 11.594C177.796 14.3482 182.198 20.8198 187.926 19.8229C193.654 18.826 195.592 11.256 195.065 8.45109L194.963 7.84279C195.633 7.78984 196.285 7.60584 196.883 7.30136C197.481 6.99689 198.013 6.57794 198.447 6.06859C199.261 5.3133 199.739 4.26783 199.778 3.16201C199.816 2.05618 199.411 0.980517 198.651 0.17147C197.615 -0.690287 194.708 1.86119 193.161 4.14231C191.785 2.79053 189.337 1.96257 184.884 2.73984C183.012 2.99336 181.217 3.63837 179.614 4.63233C176.317 1.94567 171.286 -0.436829 170.3 1.25289C169.553 2.5539 169.354 4.09551 169.746 5.5419C170.137 6.98828 171.088 8.22222 172.391 8.97491C173.855 9.79635 175.465 10.3299 177.133 10.5463V10.4788ZM13.5503 31.2792L17.7316 16.0717C18.0886 14.8044 18.7345 14.5341 19.4314 14.5341C20.1283 14.5341 20.8422 14.8044 21.1311 16.0717L25.2955 31.2792H13.5503ZM28.6269 12.1685C28.412 11.5315 28.011 10.9727 27.4752 10.5634C26.9393 10.1541 26.2929 9.91284 25.6184 9.87046H13.3973C12.711 9.89964 12.0497 10.1348 11.5005 10.5451C10.9513 10.9553 10.54 11.5213 10.3208 12.1685L0.122392 49.3423C0.0149637 49.6083 -0.0226367 49.8971 0.0131277 50.1815C0.0488921 50.4659 0.156846 50.7366 0.326834 50.9681C0.496822 51.1996 0.723257 51.3843 0.984839 51.5049C1.24642 51.6254 1.53455 51.6778 1.82213 51.6572H5.56154C6.24904 51.6222 6.90965 51.3805 7.45596 50.9641C8.00228 50.5478 8.40857 49.9763 8.62107 49.3254L12.3095 35.9428H26.7572L30.4457 49.3254C30.6589 49.968 31.0612 50.5322 31.6007 50.945C32.1401 51.3577 32.7917 51.5999 33.4712 51.6403H37.0746C37.3622 51.6609 37.6503 51.6085 37.9119 51.488C38.1735 51.3674 38.3999 51.1827 38.5699 50.9512C38.7399 50.7197 38.8479 50.449 38.8836 50.1646C38.9194 49.8802 38.8818 49.5914 38.7744 49.3254L28.6269 12.1685ZM77.6643 51.6403H78.5822C80.7238 51.6403 82.4746 50.9982 82.4746 49.3254V12.1685C82.4746 10.4788 80.7748 9.87046 78.5822 9.87046H77.6643C75.5226 9.87046 73.7719 10.5126 73.7719 12.1685V49.3423C73.7719 51.032 75.4716 51.6572 77.6643 51.6572V51.6403ZM106.56 43.8C106.56 46.9429 104.333 46.9091 101.597 46.9091H99.7269C97.0073 46.9091 94.7806 46.9091 94.7806 43.8V30.2823C94.6956 27.038 97.0073 27.038 99.6419 27.038H101.512C104.248 27.038 106.475 27.038 106.475 30.1471L106.56 43.8ZM102.514 22.3575H98.707C97.3776 22.3559 96.0494 22.4349 94.7296 22.594V12.1685C94.7296 10.4788 93.0299 9.87046 90.8203 9.87046H89.8684C87.7097 9.87046 85.976 10.5126 85.976 12.1685V43.4114C85.976 49.9337 91.6531 51.6403 98.656 51.6403H102.514C109.483 51.6403 115.177 49.9506 115.177 43.4114V30.5864C115.177 24.0641 109.483 22.3575 102.514 22.3575ZM192.277 43.6141C192.277 46.757 190.068 46.7401 187.331 46.7401H185.394C182.674 46.7401 180.447 46.7401 180.447 43.6141V30.4174C180.447 27.2577 182.674 27.2915 185.394 27.2915H187.263C190 27.2915 192.209 27.2915 192.209 30.4174L192.277 43.6141ZM204.091 14.4496H203.173C201.014 14.4496 199.28 15.0748 199.28 16.7476V18.5894C199.28 21.7323 195.881 22.4927 191.853 22.4927H184.476C177.49 22.4927 171.813 24.1824 171.813 30.7216V43.2593C171.708 44.6581 172.036 46.0553 172.753 47.2634C173.47 48.4715 174.542 49.4327 175.824 50.0182L173.41 51.201C172.906 51.5326 172.494 51.985 172.212 52.5165C171.93 53.048 171.787 53.6416 171.796 54.2425V56.3546C171.796 58.3316 173.257 59.1089 175.042 59.1089H187.331C190.068 59.1089 192.277 59.1089 192.277 62.218V67.9461C192.277 69.6358 193.977 70.2441 196.204 70.2441H197.105C199.263 70.2441 200.997 69.602 200.997 67.9461V62.6573C200.997 56.135 195.32 54.4284 188.334 54.4284H179.563V53.499C180.175 53.0935 181.518 52.35 183.235 51.4544H188.334C195.32 51.4544 200.997 49.7647 200.997 43.2424V30.7385C201.068 29.0207 200.54 27.3313 199.501 25.9566C204.499 25.0779 208 22.8813 208 18.2515V16.7476C208 15.0579 206.3 14.4496 204.125 14.4496H204.091ZM168.957 22.3575H166.594C158.215 22.3575 151.399 24.0472 151.399 30.5864V49.3254C151.399 51.0151 153.099 51.6403 155.274 51.6403H156.209C158.351 51.6403 160.084 50.9982 160.084 49.3254V30.2147C160.084 27.0718 163.484 26.3114 167.512 26.3114H168.957C170.351 26.3114 171.405 25.72 171.405 24.3176C171.405 22.9151 170.351 22.3575 168.957 22.3575ZM49.5677 43.7831V39.1364C49.5677 35.9766 51.7773 36.0104 54.5139 36.0104H61.3129V43.7831C61.3129 46.926 59.0862 46.8922 56.3666 46.8922H54.5139C51.7773 46.8922 49.5677 46.8922 49.5677 43.7831ZM57.3695 51.6403C64.3554 51.6403 70.0495 49.9506 70.0495 43.4114V30.5864C70.0495 24.0641 64.3554 22.3575 57.3695 22.3575H43.7716C42.6328 22.3575 41.6469 23.0165 41.6469 24.7062C41.6469 26.3959 42.6158 27.038 43.7206 27.038H56.3836C59.1032 27.038 61.3129 27.038 61.3129 30.2147V31.2792H53.4941C46.5082 31.2792 40.814 32.9689 40.814 39.4912V43.4114C40.814 49.9337 46.5082 51.6403 53.4941 51.6403H57.3695ZM80.8938 83.745H60.497V82.7987C63.2845 80.9569 80.7748 69.9738 80.7748 69.9738C81.2792 69.6287 81.6883 69.1631 81.9645 68.6199C82.2407 68.0766 82.3752 67.4731 82.3556 66.8647V62.8094C82.3556 60.8155 80.8938 60.0382 79.1091 60.0382H53.6131C53.0232 60.0881 52.4737 60.3562 52.0733 60.7896C51.6728 61.223 51.4506 61.79 51.4506 62.3785C51.4506 62.9669 51.6728 63.534 52.0733 63.9673C52.4737 64.4007 53.0232 64.6689 53.6131 64.7187H74.6218V65.665C71.8172 67.5913 54.3439 78.5575 54.3439 78.5575C53.8536 78.9089 53.4576 79.3747 53.1909 79.9139C52.9241 80.4531 52.7948 81.0492 52.8142 81.6497V85.7051C52.8142 87.6989 54.259 88.4762 56.0607 88.4762H80.8938C81.4836 88.4263 82.0331 88.1582 82.4336 87.7248C82.834 87.2914 83.0562 86.7244 83.0562 86.1359C83.0562 85.5475 82.834 84.9805 82.4336 84.5471C82.0331 84.1137 81.4836 83.8455 80.8938 83.7957V83.745ZM139.178 43.7831C139.178 46.926 136.951 46.8922 134.214 46.8922H132.362C129.608 46.8922 127.399 46.8922 127.399 43.7831V30.2654C127.399 27.038 129.608 27.038 132.362 27.038H134.214C136.951 27.038 139.178 27.038 139.178 30.1471V43.7831ZM135.217 22.3575H131.342C124.373 22.3575 118.679 24.0472 118.679 30.5864V43.4114C118.679 49.9337 124.373 51.6403 131.342 51.6403H135.217C142.203 51.6403 147.88 49.9506 147.88 43.4114V30.5864C147.88 24.0641 142.203 22.3575 135.217 22.3575ZM139.178 81.109C139.178 84.2519 136.951 84.2181 134.214 84.2181H132.362C129.608 84.2181 127.399 84.2181 127.399 81.109V67.5913C127.399 64.4484 129.608 64.4653 132.362 64.4653H134.214C136.951 64.4653 139.178 64.4653 139.178 67.5913V81.109ZM135.217 59.7172H131.342C124.373 59.7172 118.679 61.4069 118.679 67.9461V80.788C118.679 87.2934 124.373 89 131.342 89H135.217C142.203 89 147.88 87.3103 147.88 80.788V67.9461C147.88 61.4238 142.203 59.7172 135.217 59.7172ZM106.475 81.109C106.475 84.2519 104.248 84.2181 101.512 84.2181H99.6419C96.9223 84.2181 94.6956 84.2181 94.6956 81.109V67.5913C94.6956 64.4484 96.9223 64.4653 99.6419 64.4653H101.512C104.248 64.4653 106.475 64.4653 106.475 67.5913V81.109ZM102.514 59.7172H98.707C91.7041 59.7172 86.027 61.4069 86.027 67.9461V80.788C86.027 87.2934 91.7041 89 98.707 89H102.565C109.534 89 115.228 87.3103 115.228 80.788V67.9461C115.228 61.4238 109.534 59.7172 102.565 59.7172" fill="#EEF2EE"/>
</svg>
