<svg width="22" height="22" viewBox="0 0 22 22" fill="none" xmlns="http://www.w3.org/2000/svg">
<path d="M14.5368 1.29248C14.5368 1.29248 13.0931 1.32745 11.7694 2.65122C10.4456 3.97499 10.6689 5.75833 10.6689 5.75833C10.6689 5.75833 11.9793 5.99794 13.3779 4.5994C14.7765 3.20087 14.5368 1.29248 14.5368 1.29248Z" fill="white"/>
<path d="M10.8203 6.88712C9.8445 6.88045 9.2451 6.03791 7.58328 6.03791C6.08799 6.03791 4.58903 7.00266 3.95166 7.93615C3.31725 8.86528 2.76776 9.88434 2.76776 11.9524C2.76776 14.0205 3.76352 17.5772 6.21208 19.9849C6.63141 20.3973 7.18649 20.7072 7.81974 20.7264C8.95869 20.7609 9.65803 19.9083 11.0967 19.9083C12.5354 19.9083 12.9683 20.7264 14.2671 20.7264C14.8577 20.7264 15.5312 20.4574 16.1853 19.7618C17.0245 18.8693 18.0659 17.1695 18.5964 15.5391C18.5964 15.5391 15.94 14.5132 15.9721 11.5561C15.9988 9.10506 18.0802 7.8995 18.0802 7.8995C18.0802 7.8995 16.8646 5.9613 14.2804 5.9613C12.4954 5.97465 11.6961 6.89312 10.8203 6.88712Z" fill="white"/>
</svg>
