<svg width="16" height="16" viewBox="0 0 16 16" fill="none" xmlns="http://www.w3.org/2000/svg">
  <path fill-rule="evenodd" clip-rule="evenodd"
    d="M7.99998 14.4001C11.5346 14.4001 14.4 11.5347 14.4 8.0001C14.4 4.46548 11.5346 1.6001 7.99998 1.6001C4.46535 1.6001 1.59998 4.46548 1.59998 8.0001C1.59998 11.5347 4.46535 14.4001 7.99998 14.4001ZM8.99998 4.8001C8.99998 4.24781 8.55226 3.8001 7.99998 3.8001C7.44769 3.8001 6.99998 4.24781 6.99998 4.8001V8.0001C6.99998 8.26531 7.10533 8.51967 7.29287 8.7072L9.55561 10.9699C9.94614 11.3605 10.5793 11.3605 10.9698 10.9699C11.3603 10.5794 11.3603 9.94626 10.9698 9.55573L8.99998 7.58588V4.8001Z"
    fill="#698665" />
</svg>