<svg width="375" height="518" viewBox="0 0 375 518" fill="none" xmlns="http://www.w3.org/2000/svg">
<path d="M130.585 510C115.414 510 100.266 509.773 85.14 509.32C63.5275 508.671 41.179 508.001 20.4069 498.38C5.87598 491.651 -6.99343 480.854 -16.8096 467.156C-23.2856 458.048 -28.1085 447.951 -31.0731 437.292C-32.5234 432.165 -33.5758 426.941 -34.2217 421.664C-35.9905 407.407 -34.7371 392.954 -30.5374 379.176C-28.4978 372.583 -25.7188 366.223 -22.2494 360.207C-7.10119 334.011 20.5281 316.427 53.5542 311.963C53.8273 311.933 54.1027 311.928 54.3767 311.948C54.5253 311.955 54.6733 311.962 54.8242 311.957L55.0186 311.905C55.5194 311.76 56.0307 311.65 56.5483 311.577C107.483 305.245 161.329 318.057 212.26 348.628C251.64 372.269 303.83 384.999 371.811 387.546L372.777 387.588C391.701 388.496 410.007 395.012 425.717 406.431C441.067 417.501 452.76 432.604 459.385 449.92C460.187 452.014 460.922 454.195 461.569 456.4C462.796 460.57 461.374 464.784 457.667 467.992V467.996L457.497 468.142C457.09 468.48 456.661 468.805 456.223 469.107L455.707 469.462C451.363 472.45 447.931 474.811 443.825 476.645C441.052 477.87 438.144 478.787 435.156 479.378C418.589 482.751 401.766 485.878 385.153 488.673C352.889 494.105 319.776 498.587 286.732 501.992C234.868 507.329 182.745 510.003 130.585 510ZM53.9905 312.876C53.8891 312.875 53.7878 312.881 53.6872 312.893C20.9699 317.315 -6.39786 334.727 -21.3959 360.664C-24.8311 366.62 -27.5825 372.917 -29.6018 379.445C-33.7635 393.1 -35.0051 407.425 -33.2518 421.554C-32.6115 426.785 -31.5684 431.963 -30.1309 437.045C-27.1953 447.601 -22.4192 457.602 -16.0057 466.623C-6.28556 480.187 6.45224 490.875 20.8308 497.534C41.4165 507.069 63.6596 507.736 85.1705 508.381C152.418 510.389 219.729 507.943 286.627 501.059C319.65 497.655 352.742 493.177 384.985 487.747C401.586 484.955 418.398 481.83 434.953 478.459C437.87 477.883 440.708 476.988 443.413 475.793C447.437 473.996 450.836 471.658 455.139 468.698L455.654 468.343C456.031 468.083 456.401 467.805 456.755 467.517L456.857 467.428C460.393 464.451 461.768 460.525 460.629 456.655V456.654C459.989 454.473 459.262 452.316 458.468 450.243C445.149 415.149 410.693 390.347 372.73 388.526L371.77 388.484C340.717 387.321 313.543 384.097 288.699 378.629C259.041 372.102 233.15 362.276 211.743 349.425C161.006 318.971 107.385 306.206 56.6727 312.508C56.2011 312.576 55.7354 312.677 55.2791 312.81L54.9289 312.892C54.7272 312.902 54.5293 312.894 54.3319 312.886C54.2148 312.881 54.1013 312.876 53.9905 312.876Z" fill="#EEF2EE"/>
<path d="M457.339 474.142V474.146C456.943 474.488 456.528 474.816 456.098 475.123C451.605 478.337 448.005 480.955 443.775 482.919C429.234 484.35 414.674 485.589 400.094 486.636C362.566 489.327 324.966 490.758 287.293 490.929C210.866 491.32 130.512 493.714 63.5956 456.592C41.3297 444.24 9.07564 469.57 -12.9824 456.025C-19.3406 452.108 -25.2488 447.504 -30.6005 442.295C-32.0459 436.985 -33.0941 431.574 -33.7364 426.108C-35.5071 411.343 -34.2591 396.372 -30.0682 382.104C-28.0405 375.279 -25.2742 368.695 -21.8184 362.469C-11.5708 366.147 -1.74336 371.442 7.61032 377.049C24.7644 387.321 41.4447 398.985 60.5477 404.866C88.7065 413.536 119.171 408.768 147.745 401.598C176.318 394.428 204.702 384.874 234.15 384.068C273.646 382.988 311.661 397.695 348.426 412.168C385.308 426.689 422.196 441.209 459.088 455.727C459.898 457.93 460.623 460.166 461.261 462.434C462.565 467.044 460.675 471.221 457.339 474.142Z" fill="#ECFCE5"/>
<path d="M23.216 438.528C23.5775 438.545 23.9353 438.45 24.2411 438.256C24.5468 438.063 24.7857 437.78 24.9253 437.446C25.0649 437.112 25.0985 436.743 25.0215 436.39C24.9445 436.036 24.7608 435.715 24.495 435.469C24.4505 435.292 24.4186 435.165 24.3741 434.988C24.39 434.95 24.4061 434.911 24.4222 434.873C24.7863 434.013 25.3966 433.279 26.1762 432.765C26.9558 432.251 27.8701 431.978 28.8042 431.981C29.7382 431.985 30.6505 432.264 31.4262 432.784C32.202 433.305 32.8068 434.043 33.1645 434.905C34.5944 438.349 36.4149 441.799 36.8631 445.44C37.0605 447.05 36.9773 448.681 36.617 450.262C39.9753 442.936 41.7193 434.974 41.7305 426.915C41.7312 424.893 41.6188 422.872 41.3939 420.862C41.2081 419.215 40.9502 417.579 40.6204 415.955C38.8204 407.143 34.9557 398.883 29.3437 391.854C26.6275 390.372 24.4309 388.093 23.0498 385.324C22.5495 384.329 22.1959 383.267 22 382.17C22.3064 382.21 22.6178 382.235 22.9242 382.255C23.0197 382.26 23.1201 382.265 23.2156 382.27L23.2516 382.272C23.5883 382.287 23.9223 382.205 24.2132 382.034C24.5041 381.864 24.7396 381.613 24.8914 381.312C25.0431 381.011 25.1046 380.673 25.0684 380.338C25.0323 380.003 24.9001 379.685 24.6876 379.423C24.5553 379.26 24.423 379.098 24.2905 378.935C24.0896 378.684 23.8836 378.438 23.6827 378.187C23.6595 378.163 23.6377 378.138 23.6174 378.111C23.3863 377.825 23.1553 377.544 22.9242 377.257C23.346 376.603 23.9133 376.054 24.5818 375.655C26.8975 374.299 30.0921 375.238 31.7648 377.333C33.4425 379.427 33.7589 382.366 33.1763 384.983C32.6033 387.21 31.6555 389.323 30.3734 391.231C30.499 391.392 30.6296 391.548 30.7552 391.709C33.0507 394.66 35.0514 397.83 36.7287 401.172C36.3208 397.428 36.8076 393.641 38.1491 390.121C39.5086 386.842 42.0569 384.079 44.301 381.244C46.9965 377.838 52.5239 379.325 52.9988 383.642C53.0034 383.684 53.0079 383.725 53.0122 383.767C52.6789 383.955 52.3526 384.155 52.0334 384.366C51.6323 384.634 51.3216 385.017 51.1418 385.464C50.9621 385.912 50.9218 386.403 51.0261 386.874C51.1304 387.345 51.3745 387.774 51.7265 388.103C52.0785 388.433 52.5219 388.649 52.9986 388.722L53.0474 388.73C52.9286 389.931 52.7187 391.122 52.4195 392.291C51.5524 395.556 50.0202 398.607 47.919 401.252C45.8177 403.897 43.1927 406.079 40.2085 407.662C40.0126 407.762 39.8217 407.863 39.6258 407.958C40.5247 410.491 41.2431 413.084 41.7756 415.719C42.2521 418.042 42.5843 420.392 42.7702 422.756C42.998 425.734 42.9845 428.726 42.73 431.702L42.7451 431.597C43.3881 428.287 45.1534 425.301 47.743 423.143C51.5892 419.983 57.0232 418.82 61.1725 416.28C61.6135 415.997 62.1262 415.846 62.6503 415.845C63.1743 415.843 63.6878 415.992 64.1301 416.273C64.5725 416.554 64.9253 416.956 65.1469 417.43C65.3685 417.905 65.4496 418.434 65.3808 418.953C65.3752 418.99 65.3696 419.027 65.3638 419.064C64.7453 419.316 64.143 419.606 63.5606 419.933C63.2272 420.121 62.901 420.321 62.5817 420.532C62.1807 420.8 61.8699 421.183 61.6902 421.63C61.5104 422.078 61.4701 422.569 61.5744 423.04C61.6787 423.511 61.9229 423.939 62.2748 424.269C62.6268 424.599 63.0702 424.815 63.5469 424.888L63.5957 424.896C63.6309 424.901 63.661 424.906 63.6961 424.911C62.6393 427.434 61.1559 429.757 59.3111 431.777C57.032 434.223 54.2775 436.177 51.2164 437.52C48.1553 438.863 44.8522 439.567 41.5094 439.588H41.5044C40.597 443.531 39.2823 447.369 37.5814 451.041H23.5672C23.5169 450.885 23.4717 450.724 23.4265 450.569C24.7237 450.65 26.026 450.573 27.3043 450.338C26.2645 449.062 25.2248 447.776 24.185 446.5C24.1618 446.476 24.14 446.451 24.1197 446.425C23.5923 445.772 23.0598 445.124 22.5324 444.471L22.5321 444.47C22.504 442.468 22.7337 440.471 23.2155 438.528L23.216 438.528Z" fill="#698665"/>
<path d="M263.216 467.507C263.577 467.524 263.935 467.429 264.241 467.235C264.547 467.042 264.786 466.759 264.925 466.425C265.065 466.091 265.098 465.722 265.021 465.369C264.945 465.015 264.761 464.694 264.495 464.448C264.451 464.271 264.419 464.144 264.374 463.968C264.39 463.929 264.406 463.891 264.422 463.852C264.786 462.992 265.397 462.259 266.176 461.744C266.956 461.23 267.87 460.957 268.804 460.96C269.738 460.964 270.65 461.243 271.426 461.764C272.202 462.284 272.807 463.022 273.165 463.885C274.594 467.328 276.415 470.778 276.863 474.419C277.061 476.029 276.977 477.66 276.617 479.241C279.975 471.915 281.719 463.953 281.73 455.894C281.731 453.872 281.619 451.851 281.394 449.841C281.208 448.194 280.95 446.558 280.62 444.934C278.82 436.122 274.956 427.862 269.344 420.833C266.627 419.351 264.431 417.072 263.05 414.303C262.549 413.308 262.196 412.246 262 411.149C262.306 411.189 262.618 411.214 262.924 411.234C263.02 411.239 263.12 411.244 263.216 411.249L263.252 411.251C263.588 411.266 263.922 411.184 264.213 411.013C264.504 410.843 264.74 410.592 264.891 410.291C265.043 409.99 265.105 409.652 265.068 409.317C265.032 408.982 264.9 408.664 264.688 408.402C264.555 408.24 264.423 408.077 264.291 407.914C264.09 407.663 263.884 407.417 263.683 407.166C263.66 407.142 263.638 407.117 263.617 407.09C263.386 406.804 263.155 406.523 262.924 406.236C263.346 405.582 263.913 405.033 264.582 404.634C266.897 403.278 270.092 404.217 271.765 406.312C273.442 408.406 273.759 411.345 273.176 413.962C272.603 416.189 271.655 418.302 270.373 420.211C270.499 420.371 270.63 420.527 270.755 420.688C273.051 423.64 275.051 426.809 276.729 430.151C276.321 426.407 276.808 422.62 278.149 419.1C279.509 415.821 282.057 413.058 284.301 410.223C286.997 406.817 292.524 408.304 292.999 412.621C293.003 412.663 293.008 412.705 293.012 412.746C292.679 412.934 292.353 413.134 292.033 413.345C291.632 413.613 291.322 413.996 291.142 414.443C290.962 414.891 290.922 415.382 291.026 415.853C291.13 416.324 291.375 416.753 291.727 417.082C292.078 417.412 292.522 417.628 292.999 417.702L293.047 417.709C292.929 418.91 292.719 420.101 292.42 421.27C291.552 424.535 290.02 427.586 287.919 430.231C285.818 432.876 283.193 435.058 280.208 436.641C280.013 436.741 279.822 436.842 279.626 436.937C281.311 441.713 282.368 446.687 282.77 451.735C282.998 454.713 282.985 457.705 282.73 460.681L282.745 460.576C283.388 457.266 285.153 454.28 287.743 452.122C291.589 448.962 297.023 447.799 301.172 445.259C301.613 444.976 302.126 444.825 302.65 444.824C303.174 444.823 303.688 444.971 304.13 445.252C304.572 445.533 304.925 445.935 305.147 446.41C305.368 446.884 305.45 447.413 305.381 447.932C305.375 447.969 305.37 448.006 305.364 448.043C304.745 448.295 304.143 448.585 303.561 448.912C303.227 449.1 302.901 449.3 302.582 449.511C302.181 449.779 301.87 450.162 301.69 450.609C301.51 451.057 301.47 451.548 301.574 452.019C301.679 452.49 301.923 452.919 302.275 453.248C302.627 453.578 303.07 453.794 303.547 453.867L303.596 453.875C303.631 453.88 303.661 453.885 303.696 453.89C302.639 456.414 301.156 458.736 299.311 460.757C297.032 463.202 294.278 465.156 291.216 466.499C288.155 467.842 284.852 468.546 281.509 468.567H281.504C280.597 472.51 279.282 476.349 277.581 480.02H263.567C263.517 479.864 263.472 479.703 263.426 479.548C264.724 479.629 266.026 479.552 267.304 479.317C266.265 478.041 265.225 476.755 264.185 475.479C264.162 475.455 264.14 475.43 264.12 475.404C263.592 474.751 263.06 474.103 262.532 473.45L262.532 473.449C262.504 471.447 262.734 469.45 263.216 467.507L263.216 467.507Z" fill="#698665"/>
<g clip-path="url(#clip0_817_3206)">
<path d="M530 480.796V491.35C530 494.986 521.29 497.945 510.587 497.945H-43.5133C-48.5357 497.945 -53.1216 497.294 -56.5697 496.221C-56.9376 496.111 -57.2969 495.992 -57.6392 495.867C-60.9161 494.687 -62.9268 493.097 -62.9268 491.35V480.796C105.755 471.333 313.202 474.537 530 480.796Z" fill="#BDFAA3"/>
<path d="M530 492.422V502.976C530 506.612 521.29 509.571 510.587 509.571H-43.5133C-48.5357 509.571 -53.1216 508.92 -56.5697 507.847C-56.9376 507.737 -57.2969 507.618 -57.6392 507.493C-60.9161 506.313 -62.9268 504.723 -62.9268 502.976V492.422C92.3377 485.364 303.625 487.637 530 492.422Z" fill="#BDFAA3"/>
<path d="M529.927 502.935V513.489C529.927 517.125 521.217 520.084 510.513 520.084H-43.5866C-48.6089 520.084 -53.1949 519.433 -56.6429 518.36C-57.0108 518.25 -57.3702 518.131 -57.7124 518.006C-60.9894 516.826 -63 515.236 -63 513.489V502.935C104.996 497.008 309.674 498.415 529.927 502.935Z" fill="#698665"/>
<path d="M161.512 466.741C162.349 466.793 162.811 465.755 162.178 465.15L162.115 464.9L162.14 464.84C162.986 462.824 165.854 462.838 166.692 464.856C167.437 466.648 168.385 468.442 168.618 470.337C168.723 471.173 168.676 472.025 168.49 472.845C170.235 469.038 171.153 464.881 171.153 460.7C171.153 459.649 171.095 458.599 170.978 457.551C170.881 456.694 170.747 455.842 170.575 454.998C169.641 450.436 167.619 446.09 164.703 442.461C163.301 441.695 162.132 440.498 161.426 439.064C161.172 438.546 160.973 437.99 160.879 437.423C161.039 437.444 161.481 435.016 161.36 434.867C161.583 434.53 161.981 434.362 162.223 434.034C163.431 432.398 165.095 432.683 165.964 434.906C167.819 435.842 167.837 437.394 166.699 438.886C165.974 439.835 165.875 441.12 165.239 442.137C165.304 442.22 165.372 442.301 165.438 442.385C166.637 443.921 167.674 445.573 168.548 447.308C168.301 445.38 168.666 443.057 169.288 441.559C169.996 439.853 171.323 438.416 172.491 436.941C173.895 435.169 176.773 435.943 177.02 438.188L177.027 438.254C176.854 438.351 176.684 438.455 176.518 438.565C175.57 439.191 175.898 440.658 177.02 440.831L177.046 440.835C176.983 441.46 176.876 442.079 176.719 442.688C178.218 448.48 174.981 450.589 170.36 450.684C170.258 450.736 170.159 450.788 170.057 450.838C170.525 452.155 170.899 453.506 171.176 454.875C171.425 456.085 171.597 457.308 171.694 458.536C171.815 460.086 171.804 461.643 171.673 463.19L171.681 463.135C172.013 461.431 172.939 459.84 174.284 458.737C176.286 457.094 179.116 456.488 181.276 455.167C182.316 454.531 183.649 455.353 183.468 456.558L183.459 456.616C183.137 456.746 182.823 456.898 182.52 457.068C182.346 457.165 182.176 457.269 182.01 457.379C181.063 458.005 181.39 459.472 182.513 459.645L182.538 459.649L182.59 459.657C182.039 460.966 181.27 462.181 180.307 463.229C179.37 468.285 175.344 468.765 171.038 467.292H171.035C170.564 469.341 169.876 471.343 168.992 473.25H161.695C161.669 473.169 161.645 473.086 161.622 473.005C162.297 473.046 162.977 473.007 163.641 472.884C163.1 472.221 162.558 471.552 162.017 470.888C162.004 470.875 161.993 470.862 161.983 470.849C161.708 470.509 161.431 470.172 161.156 469.832L161.156 469.832C161.139 468.789 161.264 467.75 161.512 466.741L161.512 466.741V466.741Z" fill="#F2F2F2"/>
<path d="M115.195 209.557C113.762 196.024 94.3406 196.413 98.6732 183.386C90.4293 187.039 82.8458 192.126 76.4639 198.524C93.9572 141.343 26.216 184.83 26.216 184.83C26.216 184.83 7.49956 176.774 2.22124 173.121C-18.8563 158.786 -51.3964 194.407 -24.3687 213.683C-54.4284 199.507 -56.9515 221.482 -62.1641 247.033C-60.1759 253.964 -56.5048 260.405 -51.3486 265.464C-59.8347 264.998 -68.0896 258.877 -63.854 271.297C-56.2385 286.578 -43.4777 289.351 -46.0374 308.33C-45.8466 324.833 -13.3068 329.066 22.0993 325.569C1.89256 383.065 -9.08968 436.431 0.588364 480.548H35.2377C23.2662 427.359 20.6441 375.223 30.9465 324.542C70.2489 319.312 110.064 305.16 110.986 288.149C115.715 275.806 114.082 262.157 107.492 249.282C115.417 234.718 118.512 220.686 115.195 209.557H115.195Z" fill="#ECFCE5"/>
<path d="M428.934 196.862C433.773 187.719 436.914 178.756 438.037 170.488C433.551 169.95 429.583 170.325 426.119 171.52C432.084 161.312 436.066 148.74 430.883 142.287C427.618 138.729 423.399 136.066 418.412 134.297C420.025 126.633 420.045 119.451 418.206 113.138C409.678 83.744 353.23 136.702 317.207 113.781C302.105 104.175 285.849 116.278 272.682 135.742C274.488 142.214 277.823 148.229 282.507 152.953C276.54 152.516 270.669 150.714 265.444 147.719C251.354 173.682 242.839 206.183 247.103 220.876C249.871 230.409 256.496 236.815 265.792 240.115C264.179 247.779 299.026 302.801 305.447 302.744C322.517 302.592 327.824 262.776 339.221 313.8L313.833 473H350.605V308.818C360.836 292.595 371.405 303.446 395.763 290.819C470.473 252.091 438.623 209.406 428.934 196.862Z" fill="#ECFCE5"/>
</g>
<g clip-path="url(#clip1_817_3206)">
<path d="M162.844 320.433C162.178 323.067 160.01 328.362 159.991 331.094L160.141 330.9C160.547 331.418 160.995 331.901 161.48 332.347C162.12 331.464 162.938 330.725 163.88 330.174C163.487 331.364 163.336 332.62 163.437 333.869C164.965 337.07 169.714 334.909 172.566 334.15C175.914 337.061 179.887 337.4 184.676 334.817C186.108 334.771 187.7 334.645 188.576 333.679C189.452 332.714 184.896 327.777 185.269 326.541C187.929 317.732 187.779 318.69 184.293 315.331C183.526 314.592 183.36 313.357 182.456 312.675C181.202 311.73 179.463 311.622 177.865 311.564C178.274 311.53 178.667 311.393 179.006 311.164C179.346 310.935 179.62 310.623 179.804 310.258C179.959 309.894 180.01 309.494 179.951 309.103C179.893 308.712 179.727 308.345 179.473 308.042C178.788 307.195 177.555 306.816 176.418 306.833C175.305 306.908 174.21 307.153 173.172 307.56C172.489 307.745 171.845 308.051 171.27 308.462C170.999 308.658 170.794 308.93 170.682 309.245C170.571 309.559 170.558 309.9 170.647 310.221C170.781 310.511 170.98 310.766 171.227 310.969C171.474 311.172 171.765 311.316 172.076 311.391C172.552 311.52 173.044 311.585 173.538 311.585C171.272 311.599 169.063 312.3 167.207 313.595C164.886 315.264 163.513 317.8 162.844 320.433Z" fill="#2F2E41"/>
<path d="M185.861 325.787C187.025 320.957 184.04 316.101 179.193 314.94C174.346 313.78 169.474 316.755 168.309 321.585C167.145 326.415 170.13 331.271 174.977 332.432C179.823 333.592 184.696 330.617 185.861 325.787Z" fill="#FFB6B6"/>
<path d="M171.06 320.073C171.792 321.565 173.342 321.867 174.755 321.996C175.2 322.037 175.647 322.072 176.097 322.096C176.232 321.872 176.377 321.651 176.531 321.44C177.171 320.558 177.988 319.818 178.931 319.268C178.619 320.208 178.461 321.191 178.462 322.181C179.306 322.189 180.152 322.174 181 322.136C181.728 322.191 182.45 321.964 183.016 321.503C183.582 321.042 183.948 320.382 184.039 319.659C184.971 320.798 186.032 321.845 187.331 322.172C188.849 322.494 186.448 321.793 187.204 320.443C187.82 319.446 188.067 318.185 188.204 316.981C188.365 315.551 188.342 313.931 187.535 313.147C186.888 312.511 184.34 314.546 183.473 314.728C181.561 315.137 185.245 313.823 183.457 314.613L183.347 314.987C183.406 313.029 182.461 311.28 181.087 310.798C180.162 310.478 179.13 310.692 178.129 310.918C176.837 311.152 175.586 311.574 174.416 312.17C173.081 312.901 172.005 314.025 171.336 315.389C170.622 316.87 170.429 318.785 171.06 320.073Z" fill="#2F2E41"/>
<path d="M179.44 310.016C179.349 310.002 179.582 310.004 179.503 310.017C179.542 310.009 179.58 309.999 179.618 309.985C179.624 309.983 179.709 309.942 179.653 309.971C179.78 309.914 179.888 309.82 179.964 309.703C180.139 309.416 180.263 309.101 180.333 308.772C180.419 308.339 180.596 307.928 180.852 307.568C180.925 307.471 181.02 307.393 181.13 307.34C181.239 307.287 181.36 307.26 181.481 307.262C181.603 307.264 181.722 307.295 181.83 307.351C181.938 307.408 182.03 307.489 182.101 307.588C182.327 307.948 182.233 308.443 182.16 308.837C182.085 309.246 181.945 309.641 181.744 310.005C181.405 310.603 180.9 311.089 180.289 311.406C179.582 311.775 178.775 311.908 177.986 311.785C177.881 311.757 177.785 311.699 177.712 311.618C177.639 311.537 177.591 311.437 177.573 311.329C177.556 311.222 177.571 311.111 177.616 311.012C177.66 310.912 177.733 310.828 177.825 310.769L179.018 310.082C179.081 310.044 179.15 310.019 179.223 310.007C179.295 309.996 179.369 309.999 179.44 310.016C179.512 310.033 179.579 310.064 179.638 310.107C179.698 310.15 179.748 310.204 179.786 310.266C179.824 310.329 179.85 310.398 179.862 310.47C179.873 310.542 179.87 310.616 179.853 310.687C179.836 310.758 179.805 310.825 179.762 310.884C179.719 310.943 179.664 310.993 179.602 311.031L178.409 311.718L178.247 310.702C178.411 310.726 178.577 310.732 178.742 310.719C178.919 310.713 179.095 310.682 179.263 310.626C179.425 310.582 179.583 310.521 179.732 310.443C179.827 310.393 179.92 310.338 180.01 310.278C180.042 310.257 180.075 310.234 180.107 310.211C180.104 310.213 180.24 310.108 180.181 310.157C180.33 310.03 180.467 309.891 180.59 309.739C180.634 309.685 180.673 309.628 180.707 309.568C180.767 309.47 180.821 309.369 180.869 309.265C180.966 309.045 181.035 308.814 181.074 308.577C181.093 308.477 181.107 308.376 181.115 308.275C181.114 308.22 181.117 308.165 181.123 308.111C181.153 307.979 181.124 308.185 181.185 308.232L181.442 308.372C181.487 308.379 181.534 308.376 181.578 308.362C181.622 308.349 181.662 308.326 181.696 308.295C181.719 308.253 181.713 308.26 181.681 308.317C181.643 308.384 181.609 308.453 181.58 308.524C181.518 308.691 181.464 308.86 181.419 309.032C181.327 309.398 181.197 309.752 181.03 310.09C180.867 310.431 180.601 310.712 180.268 310.893C179.936 311.074 179.555 311.146 179.18 311.098C179.036 311.062 178.913 310.972 178.835 310.847C178.758 310.721 178.734 310.57 178.767 310.427C178.804 310.285 178.895 310.163 179.021 310.086C179.146 310.01 179.297 309.984 179.44 310.016Z" fill="#2F2E41"/>
<path d="M176.14 479.759L180.281 479.759L182.251 463.84H176.139L176.14 479.759Z" fill="#FFB6B6"/>
<path d="M181.659 480.13V477.332L180.57 477.399L176.139 477.66L175.113 477.723L174.329 487.094L174.287 487.596H177.227L177.322 487.097L177.749 484.829L178.852 487.097L179.093 487.596H186.889C187.353 487.593 187.797 487.408 188.125 487.081C188.453 486.753 188.637 486.311 188.639 485.848C188.969 484.317 182.485 481.006 181.659 480.13Z" fill="#2F2E41"/>
<path d="M130.034 474.785L133.444 477.127L144.132 465.134L139.099 461.678L130.034 474.785Z" fill="#FFB6B6"/>
<path d="M134.367 478.213L135.961 475.909L135.026 475.348L131.228 473.057L130.348 472.528L124.366 479.8L124.046 480.19L126.467 481.853L126.829 481.496L128.472 479.87L128.088 482.361L128.003 482.908L134.422 487.318C134.805 487.578 135.276 487.676 135.733 487.592C136.189 487.508 136.593 487.248 136.858 486.869C138.001 485.794 134.549 479.401 134.367 478.213Z" fill="#2F2E41"/>
<path d="M233.172 317.914C232.852 318.608 232.273 319.15 231.558 319.424C230.843 319.699 230.049 319.685 229.344 319.385C229.202 319.322 229.065 319.247 228.935 319.162L211.157 332.584L205.571 327.871L228.296 315.048C228.694 314.538 229.25 314.175 229.877 314.014C230.505 313.853 231.168 313.903 231.763 314.157C232.445 314.456 232.98 315.012 233.25 315.703C233.52 316.395 233.503 317.165 233.204 317.844C233.194 317.867 233.183 317.891 233.172 317.914Z" fill="#FFB6B6"/>
<path d="M180.964 355.612C180.964 355.612 174.681 354.015 179.083 345.792C183.484 337.57 200.412 328.401 201.583 328.286C202.755 328.172 201.804 329.285 203.834 327.451C205.485 325.959 206.161 327.38 206.222 326.655C206.384 324.742 208.886 328 208.554 325.65C208.221 323.301 213.876 330.858 213.876 330.858C213.876 330.858 213.874 332.258 210.904 333.395C209.236 334.033 208.073 333.492 208.112 334.922C208.151 336.352 204.73 335.817 204.287 336.13C203.843 336.443 196.362 346.378 196.362 346.378L180.964 355.612Z" fill="#BDFAA3"/>
<path d="M247.633 342.715C247.705 342.072 247.399 341.511 246.951 341.461C246.502 341.411 246.08 341.892 246.008 342.534C245.936 343.177 246.241 343.739 246.69 343.789C247.138 343.839 247.56 343.358 247.633 342.715Z" fill="#E6E6E6"/>
<path d="M248.632 350.307C248.704 349.664 248.399 349.102 247.95 349.052C247.502 349.003 247.079 349.483 247.007 350.126C246.935 350.769 247.241 351.33 247.689 351.38C248.138 351.43 248.56 350.95 248.632 350.307Z" fill="#525252"/>
<path d="M196.651 390.044L196.757 388.927L192.151 376.342L172.521 380.114C172.521 380.114 162.404 392.535 164.654 400.756C165.264 402.985 157.587 417.793 160.114 416.196C162.64 414.599 157.486 419.045 158.806 419.149C160.126 419.253 158.053 420.803 157.66 421.648C148.618 441.111 134.157 466.524 134.157 466.524C134.157 466.524 137.165 474.95 141.91 470.239C146.656 465.527 178.403 423.675 178.403 423.675C178.403 423.675 177.975 426.4 177.378 430.543C175.535 443.341 172.639 469.107 175.212 470.441C177.266 471.501 179.565 471.997 181.875 471.88C181.875 471.88 198.901 432.643 196.651 425.17" fill="#2F2E41"/>
<path d="M185.044 337.553L183.217 333.768L173.319 334.963L172.295 338.051C169.427 340.907 167.064 344.226 165.307 347.868C162.568 353.699 171.683 379.456 170.183 380.951C168.683 382.446 163.126 383.251 165.626 385.082C168.126 386.913 165.626 385.742 165.003 387.831C164.38 389.92 163.153 398.235 163.153 398.235C163.153 398.235 172.67 406.186 178.67 394.228C187.419 394.975 189.168 386.754 189.168 386.754L192.11 381.899C195.926 380.159 190.043 360.223 191.543 356.237C193.043 352.251 185.044 337.553 185.044 337.553Z" fill="#BDFAA3"/>
<path d="M194.09 380.229C194.113 378.765 194.108 377.188 194.761 375.839C195.251 374.826 196.16 373.814 197.358 373.729C198.377 373.657 199.534 374.257 199.628 375.361C199.739 376.673 198.631 377.926 197.733 378.755C196.649 379.747 195.328 380.449 193.897 380.792C193.796 380.822 193.707 380.88 193.639 380.96C193.571 381.04 193.528 381.137 193.514 381.241C193.501 381.345 193.517 381.45 193.562 381.544C193.607 381.639 193.679 381.718 193.768 381.773C194.908 382.401 195.915 383.243 196.735 384.252C197.493 385.184 198.276 386.415 198.435 387.628C198.503 388.145 198.411 388.773 197.862 388.989C197.341 389.194 196.707 388.927 196.259 388.663C195.207 387.965 194.382 386.975 193.887 385.816C193.275 384.503 193.069 383.039 193.295 381.609C193.406 380.933 192.368 380.642 192.256 381.323C191.762 384.325 192.964 387.901 195.66 389.556C196.886 390.309 198.757 390.441 199.372 388.852C199.93 387.412 199.007 385.682 198.236 384.498C197.247 382.979 195.899 381.725 194.312 380.846L194.183 381.827C195.748 381.444 197.193 380.681 198.392 379.608C199.539 378.582 200.774 377.058 200.71 375.431C200.653 373.97 199.481 372.909 198.076 372.696C196.548 372.463 195.185 373.293 194.309 374.496C193.109 376.145 193.043 378.27 193.012 380.229C193.017 380.368 193.076 380.5 193.177 380.596C193.277 380.693 193.411 380.747 193.551 380.747C193.691 380.747 193.825 380.693 193.926 380.596C194.026 380.5 194.085 380.368 194.09 380.229L194.09 380.229Z" fill="#2F2E41"/>
<path d="M150.329 400.734C151.008 400.381 151.523 399.778 151.763 399.053C152.003 398.328 151.95 397.538 151.615 396.851C151.544 396.713 151.463 396.58 151.37 396.455L163.944 378.096L158.944 372.769L147.215 396.022C146.725 396.443 146.388 397.015 146.258 397.647C146.127 398.28 146.21 398.937 146.494 399.518C146.659 399.846 146.887 400.139 147.166 400.38C147.444 400.621 147.768 400.805 148.117 400.921C148.467 401.037 148.836 401.083 149.204 401.057C149.572 401.031 149.931 400.934 150.26 400.769C150.283 400.758 150.306 400.746 150.329 400.734Z" fill="#FFB6B6"/>
<path d="M185.531 346.906C185.531 346.906 183.619 340.731 175.596 345.518C167.573 350.305 159.22 367.607 159.164 368.779C159.107 369.951 160.175 368.95 158.438 371.061C157.024 372.778 158.482 373.38 157.758 373.477C155.849 373.733 159.237 376.062 156.866 375.848C154.495 375.633 162.348 380.888 162.348 380.888C162.348 380.888 163.752 380.817 164.744 377.805C165.301 376.113 164.702 374.981 166.137 374.95C167.572 374.918 166.867 371.539 167.158 371.083C167.45 370.626 177.037 362.688 177.037 362.688L185.531 346.906Z" fill="#BDFAA3"/>
<path d="M172.975 316.442C178.874 309.662 168.387 327.614 176.222 334.613C173.029 337.138 161.317 336.242 161.978 334.613C162.64 332.984 164.81 317.441 167.137 316.442C169.465 315.444 172.975 316.442 172.975 316.442Z" fill="#2F2E41"/>
<path d="M164.933 401.541C165.108 400.85 164.443 400.087 163.448 399.836C162.452 399.584 161.503 399.94 161.328 400.63C161.152 401.32 161.817 402.084 162.812 402.335C163.808 402.586 164.757 402.231 164.933 401.541Z" fill="white"/>
<path d="M152.776 401.462C152.952 400.772 152.287 400.009 151.292 399.758C150.296 399.506 149.347 399.862 149.171 400.552C148.996 401.242 149.661 402.005 150.656 402.257C151.651 402.508 152.601 402.153 152.776 401.462Z" fill="#525252"/>
<path d="M167.214 411.592C167.389 410.901 166.724 410.138 165.729 409.887C164.734 409.635 163.784 409.991 163.609 410.681C163.433 411.371 164.098 412.135 165.094 412.386C166.089 412.637 167.038 412.282 167.214 411.592Z" fill="#EEF2EE"/>
<path d="M170.047 415.382C170.12 414.739 169.814 414.177 169.366 414.127C168.917 414.077 168.495 414.558 168.423 415.201C168.351 415.843 168.656 416.405 169.105 416.455C169.553 416.505 169.975 416.024 170.047 415.382Z" fill="#E6E6E6"/>
<path d="M171.047 422.973C171.119 422.33 170.814 421.769 170.365 421.719C169.916 421.669 169.494 422.149 169.422 422.792C169.35 423.435 169.655 423.997 170.104 424.047C170.553 424.097 170.975 423.616 171.047 422.973Z" fill="#525252"/>
<path d="M158.619 408.506C158.691 407.863 158.386 407.301 157.937 407.251C157.488 407.202 157.066 407.682 156.994 408.325C156.922 408.968 157.227 409.529 157.676 409.579C158.125 409.629 158.547 409.149 158.619 408.506Z" fill="#E6E6E6"/>
<path d="M164.737 406.215C164.809 405.573 164.503 405.011 164.055 404.961C163.606 404.911 163.184 405.392 163.112 406.034C163.04 406.677 163.345 407.239 163.794 407.289C164.242 407.339 164.665 406.858 164.737 406.215Z" fill="#EEF2EE"/>
<path d="M157.2 400.027C157.272 399.385 156.967 398.823 156.518 398.773C156.069 398.723 155.647 399.204 155.575 399.847C155.503 400.489 155.808 401.051 156.257 401.101C156.706 401.151 157.128 400.67 157.2 400.027Z" fill="#525252"/>
<path d="M236.411 383.642C236.587 382.952 235.922 382.189 234.927 381.938C233.931 381.686 232.982 382.042 232.807 382.732C232.631 383.422 233.296 384.185 234.291 384.437C235.287 384.688 236.236 384.333 236.411 383.642Z" fill="white"/>
<path d="M224.255 383.564C224.431 382.874 223.766 382.111 222.77 381.86C221.775 381.608 220.826 381.964 220.65 382.654C220.475 383.344 221.139 384.107 222.135 384.359C223.13 384.61 224.08 384.254 224.255 383.564Z" fill="#525252"/>
<path d="M238.693 393.693C238.868 393.003 238.203 392.24 237.208 391.989C236.212 391.737 235.263 392.093 235.088 392.783C234.912 393.473 235.577 394.236 236.572 394.488C237.568 394.739 238.517 394.384 238.693 393.693Z" fill="#EEF2EE"/>
<path d="M241.526 397.483C241.598 396.841 241.293 396.279 240.844 396.229C240.396 396.179 239.973 396.66 239.901 397.303C239.829 397.945 240.135 398.507 240.583 398.557C241.032 398.607 241.454 398.126 241.526 397.483Z" fill="#E6E6E6"/>
<path d="M242.526 405.075C242.598 404.432 242.293 403.871 241.844 403.821C241.395 403.771 240.973 404.251 240.901 404.894C240.829 405.537 241.134 406.099 241.583 406.148C242.032 406.198 242.454 405.718 242.526 405.075Z" fill="#525252"/>
<path d="M230.098 390.608C230.17 389.965 229.865 389.403 229.416 389.353C228.967 389.303 228.545 389.784 228.473 390.427C228.401 391.07 228.706 391.631 229.155 391.681C229.604 391.731 230.026 391.251 230.098 390.608Z" fill="#E6E6E6"/>
<path d="M236.215 388.317C236.287 387.675 235.982 387.113 235.533 387.063C235.085 387.013 234.663 387.494 234.591 388.136C234.519 388.779 234.824 389.341 235.273 389.391C235.721 389.441 236.143 388.96 236.215 388.317Z" fill="#EEF2EE"/>
<path d="M228.679 382.129C228.751 381.487 228.446 380.925 227.997 380.875C227.548 380.825 227.126 381.306 227.054 381.948C226.982 382.591 227.287 383.153 227.736 383.203C228.185 383.253 228.607 382.772 228.679 382.129Z" fill="#525252"/>
<path d="M139.789 329.948C139.965 329.258 139.3 328.495 138.305 328.243C137.309 327.992 136.36 328.348 136.184 329.038C136.009 329.728 136.674 330.491 137.669 330.742C138.664 330.994 139.614 330.638 139.789 329.948Z" fill="white"/>
<path d="M127.633 329.87C127.808 329.18 127.144 328.417 126.148 328.165C125.153 327.914 124.204 328.269 124.028 328.96C123.853 329.65 124.517 330.413 125.513 330.664C126.508 330.916 127.457 330.56 127.633 329.87Z" fill="#525252"/>
<path d="M142.07 339.999C142.246 339.309 141.581 338.546 140.586 338.294C139.59 338.043 138.641 338.399 138.466 339.089C138.29 339.779 138.955 340.542 139.95 340.793C140.946 341.045 141.895 340.689 142.07 339.999Z" fill="#EEF2EE"/>
<path d="M144.904 343.789C144.976 343.146 144.671 342.585 144.222 342.535C143.774 342.485 143.351 342.965 143.279 343.608C143.207 344.251 143.513 344.813 143.961 344.863C144.41 344.912 144.832 344.432 144.904 343.789Z" fill="#E6E6E6"/>
<path d="M145.904 351.381C145.976 350.738 145.671 350.176 145.222 350.126C144.773 350.076 144.351 350.557 144.279 351.2C144.207 351.843 144.512 352.404 144.961 352.454C145.41 352.504 145.832 352.024 145.904 351.381Z" fill="#525252"/>
<path d="M133.476 336.913C133.548 336.271 133.242 335.709 132.794 335.659C132.345 335.609 131.923 336.09 131.851 336.732C131.779 337.375 132.084 337.937 132.533 337.987C132.981 338.037 133.404 337.556 133.476 336.913Z" fill="#E6E6E6"/>
<path d="M139.593 334.623C139.665 333.98 139.36 333.419 138.911 333.369C138.463 333.319 138.041 333.799 137.968 334.442C137.896 335.085 138.202 335.646 138.65 335.696C139.099 335.746 139.521 335.266 139.593 334.623Z" fill="#EEF2EE"/>
<path d="M132.057 328.435C132.129 327.792 131.823 327.231 131.375 327.181C130.926 327.131 130.504 327.611 130.432 328.254C130.36 328.897 130.665 329.458 131.114 329.508C131.562 329.558 131.985 329.078 132.057 328.435Z" fill="#525252"/>
<path d="M196.9 283.771C197.076 283.081 196.411 282.318 195.416 282.066C194.42 281.815 193.471 282.17 193.296 282.861C193.12 283.551 193.785 284.314 194.78 284.565C195.776 284.817 196.725 284.461 196.9 283.771Z" fill="white"/>
<path d="M184.744 283.693C184.92 283.003 184.255 282.24 183.259 281.988C182.264 281.737 181.315 282.092 181.139 282.782C180.964 283.473 181.628 284.236 182.624 284.487C183.619 284.739 184.569 284.383 184.744 283.693Z" fill="#525252"/>
<path d="M199.182 293.822C199.357 293.132 198.692 292.369 197.697 292.117C196.702 291.866 195.752 292.221 195.577 292.912C195.401 293.602 196.066 294.365 197.061 294.616C198.057 294.868 199.006 294.512 199.182 293.822Z" fill="#EEF2EE"/>
<path d="M202.015 297.612C202.087 296.969 201.782 296.408 201.333 296.358C200.885 296.308 200.463 296.788 200.391 297.431C200.318 298.074 200.624 298.635 201.073 298.685C201.521 298.735 201.943 298.255 202.015 297.612Z" fill="#E6E6E6"/>
<path d="M203.015 305.204C203.087 304.561 202.782 303.999 202.333 303.949C201.884 303.899 201.462 304.38 201.39 305.023C201.318 305.665 201.623 306.227 202.072 306.277C202.521 306.327 202.943 305.846 203.015 305.204Z" fill="#525252"/>
<path d="M190.587 290.736C190.659 290.093 190.354 289.532 189.905 289.482C189.456 289.432 189.034 289.913 188.962 290.555C188.89 291.198 189.195 291.76 189.644 291.81C190.093 291.86 190.515 291.379 190.587 290.736Z" fill="#E6E6E6"/>
<path d="M196.705 288.446C196.777 287.803 196.471 287.241 196.023 287.191C195.574 287.142 195.152 287.622 195.08 288.265C195.008 288.908 195.313 289.469 195.762 289.519C196.21 289.569 196.633 289.089 196.705 288.446Z" fill="#EEF2EE"/>
<path d="M189.168 282.258C189.24 281.615 188.935 281.054 188.486 281.004C188.037 280.954 187.615 281.434 187.543 282.077C187.471 282.72 187.776 283.281 188.225 283.331C188.674 283.381 189.096 282.901 189.168 282.258Z" fill="#525252"/>
<path d="M212.162 481.795C212.329 481.803 212.494 481.759 212.635 481.67C212.776 481.581 212.887 481.451 212.951 481.297C213.016 481.144 213.031 480.974 212.995 480.811C212.96 480.648 212.875 480.501 212.752 480.387L212.696 480.166C212.704 480.148 212.711 480.131 212.719 480.113C212.887 479.717 213.169 479.38 213.529 479.143C213.889 478.906 214.311 478.78 214.743 478.782C215.174 478.784 215.595 478.912 215.954 479.152C216.312 479.391 216.591 479.731 216.756 480.128C217.417 481.713 218.258 483.301 218.465 484.977C218.556 485.718 218.517 486.469 218.351 487.196C219.902 483.825 220.708 480.16 220.713 476.45C220.713 475.519 220.661 474.589 220.557 473.664C220.471 472.906 220.352 472.153 220.2 471.405C219.369 467.349 217.584 463.547 214.992 460.312C213.737 459.63 212.723 458.581 212.085 457.307C211.854 456.848 211.69 456.359 211.6 455.855C211.741 455.873 212.134 453.725 212.027 453.593C212.224 453.295 212.577 453.147 212.792 452.856C213.864 451.409 215.339 451.661 216.11 453.628C217.756 454.456 217.772 455.829 216.762 457.149C216.119 457.989 216.031 459.126 215.467 460.025C215.525 460.099 215.586 460.171 215.644 460.245C216.704 461.604 217.628 463.063 218.403 464.601C218.214 462.878 218.439 461.134 219.059 459.515C219.687 458.005 220.864 456.734 221.9 455.428C222.174 455.078 222.546 454.816 222.97 454.676C223.393 454.537 223.849 454.525 224.278 454.643C224.708 454.761 225.094 455.004 225.385 455.34C225.677 455.676 225.862 456.091 225.917 456.532C225.919 456.551 225.921 456.571 225.923 456.59C225.769 456.676 225.619 456.768 225.471 456.865C225.286 456.989 225.143 457.165 225.059 457.371C224.976 457.577 224.958 457.803 225.006 458.02C225.054 458.237 225.167 458.434 225.33 458.586C225.492 458.738 225.697 458.837 225.917 458.871L225.94 458.874C225.885 459.427 225.788 459.975 225.65 460.513C226.979 465.638 224.109 467.504 220.01 467.588C219.919 467.634 219.831 467.681 219.741 467.725C220.519 469.923 221.007 472.212 221.193 474.536C221.298 475.907 221.292 477.284 221.174 478.654L221.181 478.605C221.478 477.082 222.294 475.707 223.49 474.714C225.266 473.26 227.776 472.724 229.692 471.555C229.896 471.425 230.133 471.355 230.375 471.355C230.617 471.354 230.854 471.422 231.058 471.552C231.263 471.681 231.426 471.866 231.528 472.085C231.63 472.303 231.668 472.546 231.636 472.785L231.628 472.836C231.342 472.952 231.064 473.086 230.795 473.236C230.641 473.323 230.491 473.415 230.343 473.512C230.158 473.635 230.014 473.812 229.931 474.018C229.848 474.224 229.83 474.45 229.878 474.667C229.926 474.883 230.039 475.081 230.201 475.232C230.364 475.384 230.569 475.483 230.789 475.517L230.812 475.521C230.828 475.523 230.842 475.525 230.858 475.528C230.37 476.689 229.685 477.758 228.833 478.688C228.001 483.162 224.43 483.586 220.611 482.283H220.608C220.189 484.098 219.582 485.865 218.796 487.555H212.324C212.301 487.483 212.28 487.409 212.259 487.338C212.858 487.375 213.459 487.339 214.05 487.231C213.57 486.644 213.089 486.052 212.609 485.465C212.598 485.454 212.588 485.442 212.579 485.43C212.335 485.13 212.089 484.831 211.846 484.531L211.846 484.53C211.833 483.609 211.939 482.69 212.161 481.796L212.162 481.795Z" fill="#F2F2F2"/>
</g>
<defs>
<clipPath id="clip0_817_3206">
<rect width="613" height="518" fill="white" transform="translate(-83)"/>
</clipPath>
<clipPath id="clip1_817_3206">
<rect width="128" height="207" fill="white" transform="translate(124 281)"/>
</clipPath>
</defs>
</svg>
