<svg width="18" height="19" viewBox="0 0 18 19" fill="none" xmlns="http://www.w3.org/2000/svg">
<g clip-path="url(#clip0_1748_1460)">
<path d="M17.5598 9.56375C17.5598 8.96384 17.5112 8.36069 17.4074 7.77051H9.08325V11.1689H13.8501C13.6523 12.265 13.0167 13.2345 12.086 13.8507V16.0557H14.9299C16.5999 14.5187 17.5598 12.2487 17.5598 9.56375Z" fill="#4285F4"/>
<path d="M9.08326 18.1864C11.4634 18.1864 13.4707 17.4049 14.9332 16.0559L12.0893 13.8509C11.2981 14.3892 10.2766 14.694 9.0865 14.694C6.78415 14.694 4.83202 13.1407 4.13159 11.0524H1.1969V13.3255C2.69505 16.3056 5.74647 18.1864 9.08326 18.1864V18.1864Z" fill="#34A853"/>
<path d="M4.12834 11.0524C3.75866 9.95633 3.75866 8.76948 4.12834 7.67344V5.40027H1.19689C-0.0548074 7.89394 -0.0548074 10.8319 1.19689 13.3255L4.12834 11.0524V11.0524Z" fill="#FBBC04"/>
<path d="M9.08326 4.02843C10.3414 4.00898 11.5575 4.48242 12.4687 5.35147L14.9883 2.83186C13.3929 1.33371 11.2754 0.510053 9.08326 0.535995C5.74647 0.535995 2.69505 2.41679 1.1969 5.40012L4.12834 7.67328C4.82553 5.58171 6.78091 4.02843 9.08326 4.02843V4.02843Z" fill="#EA4335"/>
</g>
<defs>
<clipPath id="clip0_1748_1460">
<rect width="17.6503" height="17.6503" fill="white" transform="translate(0.120239 0.5354)"/>
</clipPath>
</defs>
</svg>
