<svg width="593" height="400" viewBox="0 0 593 400" fill="none" xmlns="http://www.w3.org/2000/svg">
<path d="M235.5 386.876C217.399 386.876 181.547 387.417 163.5 386.876C137.713 386.103 107.784 398.355 83 386.876C65.6623 378.847 33.4163 403.856 21.7041 387.512C13.9772 376.645 8.22275 364.597 4.68549 351.88C2.9551 345.762 1.6994 339.529 0.928749 333.233C-1.1817 316.223 0.313692 298.977 5.3247 282.538C7.7582 274.671 11.074 267.083 15.2135 259.905C33.2878 228.65 66.2539 207.668 105.659 202.342C105.985 202.307 106.314 202.301 106.641 202.324C106.818 202.332 106.995 202.341 107.175 202.335L107.407 202.273C108.004 202.1 108.614 201.969 109.232 201.882C170.005 194.326 234.252 209.614 295.021 246.09C342.007 274.297 404.278 289.486 485.391 292.525L486.542 292.575C509.122 293.658 530.964 301.432 549.708 315.058C568.024 328.266 581.975 346.286 589.88 366.947C590.837 369.446 591.713 372.047 592.486 374.678C593.95 379.654 592.253 384.682 587.83 388.51V388.515L587.628 388.688C587.142 389.092 586.63 389.479 586.107 389.84L585.492 390.263C580.308 393.829 576.214 389.312 571.314 391.5C568.006 392.962 564.066 390.795 560.5 391.5C540.734 395.524 521.131 383.541 501.309 386.876C462.814 393.358 444.427 383.449 405 387.512C343.118 393.88 297.735 386.879 235.5 386.876ZM106.18 203.431C106.059 203.43 105.938 203.437 105.818 203.452C66.781 208.728 34.127 229.504 16.2319 260.45C12.1332 267.556 8.85027 275.07 6.44097 282.859C1.47538 299.152 -0.00608015 316.243 2.08599 333.102C2.84986 339.343 4.09453 345.521 5.80973 351.585C9.31236 364.18 15.011 376.113 22.6633 386.876C34.2609 403.06 65.844 378.931 83 386.876C107.562 398.253 133.334 381.231 159 382C239.237 384.397 325.18 395.726 405 387.512C444.401 383.451 462.839 393.354 501.309 386.876C521.118 383.544 540.747 395.522 560.5 391.5C563.98 390.813 568.086 392.926 571.314 391.5C576.115 389.357 579.68 392.883 584.813 389.352L585.428 388.929C585.878 388.618 586.32 388.287 586.742 387.942L586.863 387.836C591.082 384.285 592.723 379.6 591.365 374.983C590.6 372.38 589.733 369.806 588.786 367.332C572.894 325.459 531.783 295.867 486.486 293.695L485.341 293.644C448.29 292.256 415.867 288.41 386.224 281.885C350.838 274.097 319.945 262.373 294.404 247.04C233.866 210.704 169.888 195.473 109.38 202.993C108.818 203.074 108.262 203.194 107.717 203.353L107.3 203.451C107.059 203.463 106.823 203.454 106.587 203.443C106.448 203.437 106.312 203.431 106.18 203.431Z" fill="#EEF2EE"/>
<path d="M587.439 395.847V395.853C586.967 396.261 586.471 396.651 585.958 397.018C585.316 397.478 584.663 397.932 584 398.382L159.5 396.346C143.044 390.91 128.951 385.075 118 379C91.4333 364.262 52.5893 390.392 26.2705 374.231C18.6842 369.558 11.6347 364.064 5.24928 357.849C3.52472 351.513 2.27409 345.057 1.50774 338.535C-0.604983 320.918 0.884061 303.056 5.8845 286.032C8.30375 277.888 11.6044 270.032 15.7278 262.604C27.9547 266.992 39.6805 273.31 50.8409 280C71.3085 292.256 91.2107 306.173 114.004 313.19C147.601 323.534 183.95 317.846 218.043 309.291C252.136 300.736 286.002 289.336 321.139 288.375C368.263 287.087 413.622 304.635 457.488 321.903C501.495 339.229 545.507 356.553 589.525 373.876C590.493 376.504 591.357 379.171 592.119 381.877C593.675 387.379 591.419 392.362 587.439 395.847Z" fill="#DAF9CD"/>
<path d="M69.461 359.774C69.8923 359.794 70.3193 359.681 70.6841 359.45C71.0489 359.219 71.3339 358.881 71.5004 358.483C71.667 358.085 71.7071 357.645 71.6153 357.223C71.5234 356.801 71.3042 356.417 70.9871 356.124C70.934 355.913 70.8959 355.762 70.8428 355.551C70.8618 355.505 70.8809 355.459 70.9002 355.413C71.3347 354.387 72.0628 353.512 72.993 352.898C73.9232 352.284 75.0141 351.959 76.1286 351.963C77.2431 351.967 78.3315 352.3 79.2571 352.921C80.1828 353.542 80.9043 354.422 81.3312 355.452C83.0373 359.561 85.2094 363.677 85.7442 368.021C85.9797 369.942 85.8804 371.888 85.4505 373.775C89.4576 365.034 91.5383 355.534 91.5517 345.918C91.5526 343.505 91.4185 341.094 91.1502 338.696C90.9284 336.73 90.6207 334.779 90.2272 332.841C88.0795 322.326 83.4683 312.471 76.7723 304.085C73.5315 302.317 70.9105 299.597 69.2627 296.294C68.6658 295.106 68.2439 293.838 68.0101 292.53C68.3757 292.578 68.7473 292.608 69.1129 292.632C69.2268 292.638 69.3466 292.644 69.4605 292.65L69.5035 292.652C69.9053 292.67 70.3037 292.571 70.6508 292.368C70.9979 292.165 71.2789 291.866 71.46 291.507C71.641 291.147 71.7144 290.744 71.6713 290.344C71.6282 289.944 71.4704 289.565 71.2169 289.253C71.0591 289.058 70.9011 288.864 70.7431 288.67C70.5033 288.371 70.2576 288.077 70.0179 287.777C69.9902 287.749 69.9642 287.719 69.94 287.687C69.6642 287.346 69.3886 287.01 69.1129 286.668C69.6161 285.887 70.293 285.233 71.0907 284.757C73.8536 283.138 77.6653 284.259 79.6611 286.758C81.6628 289.258 82.0404 292.764 81.3452 295.886C80.6615 298.543 79.5306 301.064 78.0009 303.342C78.1508 303.534 78.3066 303.719 78.4564 303.911C81.1954 307.433 83.5826 311.215 85.5838 315.203C85.0971 310.735 85.678 306.216 87.2785 302.017C88.9007 298.104 91.9412 294.808 94.6188 291.425C97.8349 287.362 104.43 289.135 104.997 294.286C105.002 294.336 105.007 294.386 105.013 294.436C104.615 294.66 104.226 294.898 103.845 295.15C103.366 295.47 102.995 295.927 102.781 296.461C102.567 296.995 102.518 297.581 102.643 298.143C102.767 298.705 103.059 299.216 103.479 299.609C103.899 300.003 104.428 300.26 104.996 300.348L105.055 300.357C104.913 301.79 104.662 303.211 104.305 304.606C103.271 308.502 101.443 312.142 98.9356 315.297C96.4285 318.453 93.2964 321.057 89.7357 322.946C89.502 323.066 89.2742 323.186 89.0405 323.299C90.1131 326.322 90.9703 329.416 91.6056 332.559C92.1741 335.331 92.5704 338.135 92.7923 340.956C93.064 344.509 93.048 348.079 92.7443 351.63L92.7623 351.504C93.5295 347.555 95.6359 343.992 98.7257 341.417C103.315 337.647 109.798 336.259 114.749 333.229C115.275 332.891 115.887 332.711 116.512 332.709C117.138 332.708 117.75 332.885 118.278 333.22C118.806 333.556 119.227 334.035 119.491 334.601C119.756 335.168 119.852 335.798 119.77 336.418C119.764 336.462 119.757 336.506 119.75 336.551C119.012 336.851 118.293 337.197 117.598 337.587C117.201 337.812 116.811 338.05 116.431 338.302C115.952 338.621 115.581 339.078 115.367 339.612C115.152 340.146 115.104 340.733 115.229 341.295C115.353 341.856 115.644 342.368 116.064 342.761C116.484 343.155 117.013 343.412 117.582 343.5L117.64 343.509C117.682 343.515 117.718 343.521 117.76 343.527C116.499 346.538 114.729 349.309 112.528 351.72C109.809 354.637 106.522 356.969 102.87 358.572C99.2176 360.174 95.2764 361.014 91.288 361.039H91.282C90.1993 365.744 88.6306 370.323 86.6012 374.704H69.88C69.82 374.518 69.7661 374.326 69.7122 374.14C71.2599 374.238 72.8138 374.145 74.339 373.865C73.0984 372.342 71.8578 370.808 70.6172 369.286C70.5895 369.257 70.5635 369.227 70.5393 369.196C69.91 368.417 69.2747 367.644 68.6454 366.865L68.6451 366.864C68.6115 364.475 68.8856 362.093 69.4605 359.775L69.461 359.774Z" fill="#698665"/>
<path d="M534.996 369.672C535.427 369.692 535.854 369.579 536.219 369.348C536.584 369.117 536.869 368.78 537.035 368.381C537.202 367.983 537.242 367.543 537.15 367.121C537.058 366.699 536.839 366.316 536.522 366.023C536.469 365.812 536.431 365.66 536.378 365.449C536.397 365.403 536.416 365.357 536.435 365.311C536.87 364.285 537.598 363.41 538.528 362.796C539.458 362.182 540.549 361.857 541.663 361.861C542.778 361.865 543.866 362.199 544.792 362.819C545.718 363.44 546.439 364.321 546.866 365.35C548.572 369.459 550.744 373.575 551.279 377.92C551.515 379.84 551.415 381.787 550.985 383.673C554.992 374.932 557.073 365.432 557.087 355.816C557.087 353.403 556.953 350.992 556.685 348.594C556.463 346.629 556.156 344.677 555.762 342.739C553.614 332.225 549.003 322.37 542.307 313.983C539.066 312.215 536.445 309.496 534.798 306.192C534.201 305.004 533.779 303.737 533.545 302.428C533.911 302.476 534.282 302.506 534.648 302.53C534.762 302.536 534.882 302.542 534.995 302.548L535.038 302.55C535.44 302.568 535.839 302.469 536.186 302.266C536.533 302.063 536.814 301.764 536.995 301.405C537.176 301.046 537.249 300.642 537.206 300.242C537.163 299.842 537.005 299.463 536.752 299.151C536.594 298.957 536.436 298.763 536.278 298.569C536.038 298.269 535.793 297.975 535.553 297.676C535.525 297.647 535.499 297.617 535.475 297.586C535.199 297.244 534.924 296.908 534.648 296.567C535.151 295.786 535.828 295.131 536.626 294.655C539.389 293.037 543.2 294.157 545.196 296.657C547.198 299.156 547.575 302.662 546.88 305.784C546.196 308.441 545.066 310.963 543.536 313.24C543.686 313.432 543.842 313.618 543.991 313.809C546.73 317.331 549.117 321.113 551.119 325.101C550.632 320.634 551.213 316.115 552.813 311.916C554.436 308.002 557.476 304.706 560.154 301.323C563.37 297.26 569.965 299.033 570.532 304.184C570.537 304.234 570.542 304.284 570.548 304.334C570.15 304.558 569.761 304.797 569.38 305.048C568.901 305.368 568.53 305.825 568.316 306.359C568.101 306.893 568.053 307.479 568.178 308.041C568.302 308.603 568.594 309.114 569.014 309.508C569.433 309.901 569.962 310.159 570.531 310.246L570.59 310.255C570.448 311.689 570.197 313.109 569.84 314.505C568.806 318.4 566.978 322.04 564.47 325.196C561.963 328.352 558.831 330.955 555.271 332.844C555.037 332.964 554.809 333.084 554.575 333.198C556.586 338.896 557.847 344.831 558.327 350.854C558.599 354.407 558.583 357.977 558.279 361.528L558.297 361.402C559.064 357.454 561.171 353.891 564.261 351.315C568.85 347.546 575.333 346.157 580.284 343.127C580.81 342.789 581.422 342.609 582.047 342.608C582.673 342.606 583.285 342.783 583.813 343.119C584.341 343.454 584.762 343.933 585.026 344.5C585.291 345.066 585.387 345.697 585.305 346.317C585.299 346.361 585.292 346.405 585.285 346.449C584.547 346.749 583.828 347.096 583.133 347.486C582.736 347.71 582.346 347.948 581.966 348.2C581.487 348.52 581.116 348.977 580.902 349.511C580.687 350.045 580.639 350.631 580.764 351.193C580.888 351.755 581.179 352.266 581.599 352.659C582.019 353.053 582.548 353.31 583.117 353.398L583.175 353.407C583.217 353.413 583.253 353.419 583.295 353.425C582.034 356.436 580.264 359.207 578.063 361.618C575.344 364.536 572.057 366.867 568.405 368.47C564.753 370.072 560.811 370.912 556.823 370.937H556.817C555.734 375.642 554.166 380.222 552.136 384.602H535.415C535.355 384.416 535.301 384.224 535.247 384.039C536.795 384.136 538.349 384.043 539.874 383.763C538.633 382.241 537.393 380.706 536.152 379.184C536.124 379.156 536.098 379.126 536.074 379.094C535.445 378.315 534.81 377.542 534.18 376.763L534.18 376.762C534.146 374.374 534.421 371.991 534.995 369.673L534.996 369.672Z" fill="#E6E6E6"/>
<path d="M355.819 356.774C356.25 356.794 356.677 356.681 357.042 356.45C357.407 356.219 357.692 355.881 357.859 355.483C358.025 355.085 358.065 354.645 357.973 354.223C357.882 353.801 357.662 353.417 357.345 353.124C357.292 352.913 357.254 352.762 357.201 352.551C357.22 352.505 357.239 352.459 357.258 352.413C357.693 351.387 358.421 350.512 359.351 349.898C360.281 349.284 361.372 348.959 362.487 348.963C363.601 348.967 364.69 349.3 365.615 349.921C366.541 350.542 367.262 351.422 367.689 352.452C369.395 356.561 371.567 360.677 372.102 365.021C372.338 366.942 372.239 368.888 371.809 370.775C375.816 362.034 377.896 352.534 377.91 342.918C377.911 340.505 377.777 338.094 377.508 335.696C377.287 333.73 376.979 331.779 376.585 329.841C374.438 319.326 369.826 309.471 363.13 301.085C359.89 299.317 357.269 296.597 355.621 293.294C355.024 292.106 354.602 290.838 354.368 289.53C354.734 289.578 355.105 289.608 355.471 289.632C355.585 289.638 355.705 289.644 355.819 289.65L355.862 289.652C356.263 289.67 356.662 289.571 357.009 289.368C357.356 289.165 357.637 288.866 357.818 288.507C357.999 288.147 358.073 287.744 358.029 287.344C357.986 286.944 357.829 286.565 357.575 286.253C357.417 286.058 357.259 285.864 357.101 285.67C356.861 285.371 356.616 285.077 356.376 284.777C356.348 284.749 356.322 284.719 356.298 284.687C356.022 284.346 355.747 284.01 355.471 283.668C355.974 282.887 356.651 282.233 357.449 281.757C360.212 280.138 364.023 281.259 366.019 283.758C368.021 286.258 368.399 289.764 367.703 292.886C367.02 295.543 365.889 298.064 364.359 300.342C364.509 300.534 364.665 300.719 364.815 300.911C367.554 304.433 369.941 308.215 371.942 312.203C371.455 307.735 372.036 303.216 373.637 299.017C375.259 295.104 378.299 291.808 380.977 288.425C384.193 284.362 390.788 286.135 391.355 291.286C391.36 291.336 391.366 291.386 391.371 291.436C390.973 291.66 390.584 291.898 390.203 292.15C389.724 292.47 389.354 292.927 389.139 293.461C388.925 293.995 388.877 294.581 389.001 295.143C389.126 295.705 389.417 296.216 389.837 296.609C390.257 297.003 390.786 297.26 391.355 297.348L391.413 297.357C391.271 298.79 391.021 300.211 390.664 301.606C389.629 305.502 387.801 309.142 385.294 312.297C382.787 315.453 379.655 318.057 376.094 319.946C375.86 320.066 375.632 320.186 375.399 320.299C377.409 325.997 378.67 331.932 379.15 337.956C379.422 341.509 379.406 345.079 379.102 348.63L379.12 348.504C379.888 344.555 381.994 340.992 385.084 338.417C389.673 334.647 396.156 333.259 401.107 330.229C401.633 329.891 402.245 329.711 402.87 329.709C403.496 329.708 404.108 329.885 404.636 330.22C405.164 330.556 405.585 331.035 405.849 331.601C406.114 332.168 406.211 332.798 406.128 333.418C406.122 333.462 406.115 333.506 406.108 333.551C405.37 333.851 404.652 334.197 403.957 334.587C403.559 334.812 403.17 335.05 402.789 335.302C402.31 335.621 401.939 336.078 401.725 336.612C401.511 337.146 401.462 337.733 401.587 338.295C401.711 338.856 402.003 339.368 402.423 339.761C402.842 340.155 403.372 340.412 403.94 340.5L403.999 340.509C404.041 340.515 404.077 340.521 404.118 340.527C402.857 343.538 401.087 346.309 398.886 348.72C396.167 351.637 392.88 353.969 389.228 355.572C385.576 357.174 381.635 358.014 377.646 358.039H377.64C376.557 362.744 374.989 367.323 372.959 371.704H356.238C356.178 371.518 356.124 371.326 356.07 371.14C357.618 371.238 359.172 371.145 360.697 370.865C359.457 369.342 358.216 367.808 356.975 366.286C356.948 366.257 356.922 366.227 356.897 366.196C356.268 365.417 355.633 364.644 355.004 363.865L355.003 363.864C354.97 361.475 355.244 359.093 355.819 356.775L355.819 356.774Z" fill="#698665"/>
<path d="M593 376.796V387.35C593 390.986 584.29 393.945 573.587 393.945H19.4867C14.4643 393.945 9.87837 393.294 6.4303 392.221C6.0624 392.111 5.70306 391.992 5.3608 391.867C2.08386 390.687 0.0732422 389.097 0.0732422 387.35V376.796C168.755 367.333 376.202 370.537 593 376.796Z" fill="#BDFAA3"/>
<path d="M593 388.422V398.976H0.0732422V388.422C155.338 381.364 366.625 383.637 593 388.422Z" fill="#BDFAA3"/>
<path d="M593 397.242V400H308.5H2.81334e-05L0 397.212C167.997 394.467 593 397.242 593 397.242Z" fill="#698665"/>
<path d="M570.633 370.434C571.47 370.486 571.932 369.448 571.299 368.843L571.236 368.593L571.261 368.533C572.107 366.517 574.975 366.531 575.814 368.55C576.558 370.341 577.506 372.136 577.739 374.03C577.844 374.866 577.797 375.718 577.611 376.538C579.356 372.731 580.274 368.574 580.274 364.393C580.274 363.342 580.216 362.292 580.099 361.244C580.002 360.387 579.868 359.535 579.696 358.691C578.762 354.129 576.74 349.783 573.824 346.154C572.422 345.388 571.253 344.191 570.547 342.757C570.293 342.239 570.094 341.683 570 341.116C570.16 341.137 570.602 338.709 570.481 338.56C570.704 338.223 571.102 338.056 571.344 337.727C572.552 336.091 574.216 336.376 575.085 338.599C576.94 339.535 576.958 341.087 575.82 342.579C575.095 343.528 574.996 344.813 574.36 345.83C574.426 345.913 574.494 345.994 574.559 346.078C575.758 347.614 576.795 349.266 577.669 351.001C577.422 349.073 577.787 346.75 578.409 345.252C579.117 343.546 580.444 342.109 581.612 340.634C583.016 338.862 585.894 339.636 586.141 341.882L586.148 341.947C585.975 342.045 585.805 342.148 585.639 342.258C584.691 342.884 585.019 344.351 586.141 344.524L586.167 344.528C586.104 345.153 585.997 345.772 585.84 346.381C587.339 352.173 584.102 354.282 579.481 354.377C579.379 354.429 579.28 354.482 579.178 354.531C579.646 355.848 580.02 357.199 580.297 358.568C580.546 359.778 580.718 361.001 580.815 362.229C580.936 363.779 580.925 365.336 580.794 366.883L580.802 366.828C581.134 365.125 582.06 363.533 583.405 362.43C585.407 360.787 588.237 360.182 590.397 358.86C591.438 358.224 592.77 359.046 592.589 360.251L592.58 360.309C592.258 360.439 591.944 360.591 591.641 360.761C591.467 360.859 591.297 360.962 591.131 361.072C590.184 361.698 590.511 363.165 591.634 363.338L591.659 363.342L591.712 363.35C591.16 364.659 590.391 365.874 589.428 366.922C588.491 371.978 584.465 372.458 580.159 370.986H580.156C579.685 373.034 578.997 375.036 578.113 376.943H570.816C570.79 376.862 570.766 376.779 570.743 376.698C571.418 376.74 572.098 376.7 572.762 376.578C572.221 375.914 571.679 375.245 571.138 374.581C571.125 374.568 571.114 374.555 571.104 374.542C570.829 374.202 570.552 373.865 570.277 373.526L570.277 373.525C570.26 372.482 570.385 371.443 570.633 370.434L570.633 370.434V370.434Z" fill="#F2F2F2"/>
<path d="M280.512 362.741C281.349 362.793 281.811 361.755 281.178 361.15L281.115 360.9L281.14 360.84C281.986 358.824 284.854 358.838 285.693 360.856C286.437 362.648 287.385 364.442 287.618 366.337C287.723 367.173 287.676 368.025 287.49 368.845C289.235 365.038 290.153 360.881 290.153 356.7C290.153 355.649 290.095 354.599 289.978 353.551C289.881 352.694 289.747 351.842 289.575 350.998C288.641 346.436 286.619 342.09 283.703 338.461C282.301 337.695 281.132 336.498 280.426 335.064C280.172 334.546 279.973 333.99 279.879 333.423C280.039 333.444 280.481 331.016 280.36 330.867C280.583 330.53 280.981 330.362 281.223 330.034C282.431 328.398 284.095 328.683 284.964 330.906C286.819 331.842 286.837 333.394 285.699 334.886C284.974 335.835 284.875 337.12 284.239 338.137C284.305 338.22 284.373 338.301 284.438 338.385C285.637 339.921 286.674 341.573 287.548 343.308C287.301 341.38 287.666 339.057 288.288 337.559C288.996 335.853 290.323 334.416 291.491 332.941C292.895 331.169 295.773 331.942 296.02 334.188L296.027 334.254C295.854 334.351 295.684 334.455 295.518 334.565C294.57 335.191 294.898 336.658 296.02 336.831L296.046 336.835C295.983 337.46 295.876 338.079 295.719 338.688C297.218 344.48 293.981 346.589 289.36 346.684C289.258 346.736 289.159 346.788 289.057 346.838C289.525 348.155 289.899 349.506 290.176 350.875C290.425 352.085 290.597 353.308 290.694 354.536C290.815 356.086 290.804 357.643 290.673 359.19L290.681 359.135C291.013 357.431 291.939 355.84 293.284 354.737C295.286 353.094 298.116 352.488 300.276 351.167C301.317 350.531 302.649 351.353 302.468 352.558L302.459 352.616C302.137 352.746 301.823 352.898 301.52 353.068C301.346 353.165 301.176 353.269 301.01 353.379C300.063 354.005 300.39 355.472 301.513 355.645L301.538 355.649L301.591 355.657C301.039 356.966 300.27 358.181 299.307 359.229C298.37 364.285 294.344 364.765 290.038 363.292H290.035C289.564 365.341 288.876 367.343 287.992 369.25H280.695C280.669 369.169 280.645 369.086 280.622 369.005C281.297 369.046 281.977 369.007 282.641 368.884C282.1 368.221 281.558 367.552 281.017 366.888C281.004 366.875 280.993 366.862 280.983 366.849C280.708 366.509 280.431 366.172 280.156 365.832L280.156 365.832C280.139 364.789 280.264 363.75 280.512 362.741L280.512 362.741V362.741Z" fill="#F2F2F2"/>
<path d="M234.195 105.557C232.762 92.024 213.341 92.413 217.673 79.386C209.429 83.0394 201.846 88.1257 195.464 94.5244C212.957 37.3425 145.216 80.8301 145.216 80.8301C145.216 80.8301 126.5 72.7736 121.221 69.1208C100.144 54.7863 67.6036 90.4069 94.6314 109.683C64.5717 95.5067 62.0485 117.482 56.836 143.033C58.8242 149.964 62.4952 156.405 67.6515 161.464C59.1654 160.998 50.9105 154.877 55.146 167.297C62.7615 182.578 75.5224 185.351 72.9626 204.33C73.1534 220.833 105.693 225.066 141.099 221.569C120.893 279.065 109.91 332.431 119.588 376.548H154.238C142.266 323.359 139.644 271.223 149.947 220.542C189.249 215.312 229.064 201.16 229.986 184.149C234.715 171.806 233.082 158.157 226.492 145.282C234.417 130.718 237.513 116.686 234.195 105.557H234.195Z" fill="#ECFCE5"/>
<path d="M547.934 92.8616C552.773 83.7194 555.914 74.7561 557.037 66.4885C552.551 65.9498 548.583 66.3251 545.119 67.5195C551.084 57.3116 555.066 44.7403 549.883 38.2869C546.618 34.7294 542.399 32.0663 537.413 30.2974C539.025 22.6326 539.045 15.4514 537.206 9.138C528.678 -20.256 472.231 32.7022 436.207 9.78058C421.105 0.174694 404.849 12.2781 391.682 31.7416C393.488 38.214 396.823 44.2293 401.507 48.9527C395.54 48.5155 389.669 46.7136 384.444 43.7192C370.355 69.6816 361.839 102.183 366.103 116.876C368.871 126.409 375.496 132.815 384.792 136.115C383.179 143.779 418.026 198.801 424.447 198.744C441.517 198.592 446.824 158.776 458.221 209.8L432.834 369H469.605V204.818C479.836 188.595 490.405 199.446 514.763 186.819C589.473 148.091 557.623 105.406 547.934 92.8616V92.8616Z" fill="#ECFCE5"/>
<g clip-path="url(#clip0_859_3479)">
<path d="M299.844 216.433C299.178 219.067 297.01 224.362 296.991 227.094L297.141 226.901C297.547 227.418 297.995 227.901 298.48 228.347C299.12 227.464 299.938 226.725 300.88 226.174C300.487 227.364 300.336 228.62 300.437 229.869C301.965 233.07 306.714 230.909 309.566 230.15C312.914 233.061 316.887 233.4 321.676 230.817C323.108 230.771 324.7 230.645 325.576 229.679C326.452 228.714 321.896 223.777 322.269 222.541C324.929 213.732 324.779 214.69 321.293 211.331C320.526 210.592 320.36 209.357 319.456 208.675C318.202 207.73 316.463 207.622 314.865 207.564C315.274 207.53 315.667 207.393 316.006 207.164C316.346 206.935 316.62 206.623 316.804 206.258C316.959 205.894 317.01 205.494 316.951 205.103C316.893 204.712 316.727 204.345 316.473 204.042C315.788 203.195 314.555 202.816 313.418 202.833C312.305 202.908 311.21 203.153 310.172 203.56C309.489 203.745 308.845 204.051 308.27 204.462C307.999 204.658 307.794 204.93 307.682 205.245C307.571 205.559 307.558 205.9 307.647 206.221C307.781 206.511 307.98 206.766 308.227 206.969C308.474 207.172 308.765 207.316 309.076 207.391C309.552 207.52 310.044 207.585 310.538 207.585C308.272 207.599 306.063 208.3 304.207 209.595C301.886 211.264 300.513 213.8 299.844 216.433Z" fill="#2F2E41"/>
<path d="M322.861 221.787C324.025 216.957 321.04 212.101 316.193 210.94C311.346 209.78 306.474 212.755 305.309 217.585C304.145 222.415 307.13 227.271 311.977 228.432C316.823 229.592 321.696 226.617 322.861 221.787Z" fill="#FFB6B6"/>
<path d="M308.06 216.073C308.792 217.565 310.342 217.867 311.755 217.996C312.2 218.037 312.647 218.072 313.097 218.096C313.232 217.872 313.377 217.651 313.531 217.44C314.171 216.558 314.988 215.818 315.931 215.268C315.619 216.208 315.461 217.191 315.462 218.181C316.306 218.189 317.152 218.174 318 218.136C318.728 218.191 319.45 217.964 320.016 217.503C320.582 217.042 320.948 216.382 321.039 215.659C321.971 216.798 323.032 217.845 324.331 218.172C325.849 218.494 323.448 217.793 324.204 216.443C324.82 215.446 325.067 214.185 325.204 212.981C325.365 211.551 325.342 209.931 324.535 209.147C323.888 208.511 321.34 210.546 320.473 210.728C318.561 211.137 322.245 209.823 320.457 210.613L320.347 210.987C320.406 209.029 319.461 207.28 318.087 206.798C317.162 206.478 316.13 206.692 315.129 206.918C313.837 207.152 312.586 207.574 311.416 208.17C310.081 208.901 309.005 210.025 308.336 211.389C307.622 212.87 307.429 214.785 308.06 216.073Z" fill="#2F2E41"/>
<path d="M316.44 206.016C316.349 206.002 316.582 206.004 316.503 206.017C316.542 206.009 316.58 205.999 316.618 205.985C316.624 205.983 316.709 205.942 316.653 205.971C316.78 205.914 316.888 205.82 316.964 205.703C317.139 205.416 317.263 205.101 317.333 204.772C317.419 204.339 317.596 203.928 317.852 203.568C317.925 203.471 318.02 203.393 318.13 203.34C318.239 203.287 318.36 203.26 318.481 203.262C318.603 203.264 318.722 203.295 318.83 203.351C318.938 203.408 319.03 203.489 319.101 203.588C319.327 203.948 319.233 204.443 319.16 204.837C319.085 205.246 318.945 205.641 318.744 206.005C318.405 206.603 317.9 207.089 317.289 207.406C316.582 207.775 315.775 207.908 314.986 207.785C314.881 207.757 314.785 207.699 314.712 207.618C314.639 207.537 314.591 207.437 314.573 207.329C314.556 207.222 314.571 207.111 314.616 207.012C314.66 206.912 314.733 206.828 314.825 206.769L316.018 206.082C316.081 206.044 316.15 206.019 316.223 206.007C316.295 205.996 316.369 205.999 316.44 206.016C316.512 206.033 316.579 206.064 316.638 206.107C316.698 206.15 316.748 206.204 316.786 206.266C316.824 206.329 316.85 206.398 316.862 206.47C316.873 206.542 316.87 206.616 316.853 206.687C316.836 206.758 316.805 206.825 316.762 206.884C316.719 206.943 316.664 206.993 316.602 207.031L315.409 207.718L315.247 206.702C315.411 206.726 315.577 206.732 315.742 206.719C315.919 206.713 316.095 206.682 316.263 206.626C316.425 206.582 316.583 206.521 316.732 206.443C316.827 206.393 316.92 206.338 317.01 206.278C317.042 206.257 317.075 206.234 317.107 206.211C317.104 206.213 317.24 206.108 317.181 206.157C317.33 206.03 317.467 205.891 317.59 205.739C317.634 205.685 317.673 205.628 317.707 205.568C317.767 205.47 317.821 205.369 317.869 205.265C317.966 205.045 318.035 204.814 318.074 204.577C318.093 204.477 318.107 204.376 318.115 204.275C318.114 204.22 318.117 204.165 318.123 204.111C318.153 203.979 318.124 204.185 318.185 204.232L318.442 204.372C318.487 204.379 318.534 204.376 318.578 204.362C318.622 204.349 318.662 204.326 318.696 204.295C318.719 204.252 318.713 204.26 318.681 204.317C318.643 204.384 318.609 204.453 318.58 204.524C318.518 204.691 318.464 204.86 318.419 205.032C318.327 205.398 318.197 205.752 318.03 206.09C317.867 206.431 317.601 206.712 317.268 206.893C316.936 207.074 316.555 207.146 316.18 207.098C316.036 207.062 315.913 206.972 315.835 206.847C315.758 206.721 315.734 206.57 315.767 206.427C315.804 206.285 315.895 206.163 316.021 206.086C316.146 206.01 316.297 205.984 316.44 206.016V206.016Z" fill="#2F2E41"/>
<path d="M313.14 375.759L317.281 375.759L319.251 359.84H313.139L313.14 375.759Z" fill="#FFB6B6"/>
<path d="M318.659 376.13V373.332L317.57 373.399L313.139 373.66L312.113 373.723L311.329 383.094L311.287 383.596H314.227L314.322 383.097L314.749 380.83L315.852 383.097L316.093 383.596H323.889C324.353 383.593 324.797 383.408 325.125 383.081C325.453 382.753 325.637 382.311 325.639 381.848C325.969 380.317 319.485 377.006 318.659 376.13Z" fill="#2F2E41"/>
<path d="M267.034 370.785L270.444 373.127L281.132 361.134L276.099 357.678L267.034 370.785Z" fill="#FFB6B6"/>
<path d="M271.367 374.213L272.961 371.909L272.026 371.348L268.228 369.057L267.348 368.528L261.366 375.8L261.046 376.19L263.467 377.853L263.829 377.496L265.472 375.87L265.088 378.361L265.003 378.908L271.422 383.318C271.805 383.578 272.276 383.676 272.733 383.592C273.189 383.508 273.593 383.248 273.858 382.869C275.001 381.794 271.549 375.401 271.367 374.213Z" fill="#2F2E41"/>
<path d="M370.172 213.914C369.852 214.608 369.273 215.15 368.558 215.424C367.843 215.699 367.049 215.685 366.344 215.385C366.202 215.322 366.065 215.247 365.935 215.162L348.157 228.584L342.571 223.871L365.296 211.048C365.694 210.538 366.25 210.175 366.877 210.014C367.505 209.853 368.168 209.903 368.763 210.157C369.445 210.456 369.98 211.012 370.25 211.703C370.52 212.395 370.503 213.165 370.204 213.844C370.194 213.867 370.183 213.891 370.172 213.914Z" fill="#FFB6B6"/>
<path d="M317.964 251.612C317.964 251.612 311.681 250.015 316.083 241.792C320.484 233.57 337.412 224.401 338.583 224.286C339.755 224.172 338.804 225.285 340.834 223.451C342.485 221.959 343.161 223.38 343.222 222.655C343.384 220.742 345.886 224 345.554 221.65C345.221 219.301 350.876 226.858 350.876 226.858C350.876 226.858 350.874 228.258 347.904 229.395C346.236 230.033 345.073 229.492 345.112 230.922C345.151 232.352 341.73 231.817 341.287 232.13C340.843 232.443 333.362 242.378 333.362 242.378L317.964 251.612Z" fill="#BDFAA3"/>
<path d="M384.633 238.715C384.705 238.072 384.399 237.511 383.951 237.461C383.502 237.411 383.08 237.892 383.008 238.534C382.936 239.177 383.241 239.739 383.69 239.789C384.138 239.839 384.56 239.358 384.633 238.715Z" fill="#E6E6E6"/>
<path d="M385.632 246.307C385.704 245.664 385.399 245.102 384.95 245.052C384.502 245.003 384.079 245.483 384.007 246.126C383.935 246.769 384.241 247.33 384.689 247.38C385.138 247.43 385.56 246.95 385.632 246.307Z" fill="#525252"/>
<path d="M333.651 286.044L333.757 284.927L329.151 272.342L309.521 276.114C309.521 276.114 299.404 288.535 301.654 296.756C302.264 298.985 294.587 313.793 297.114 312.196C299.64 310.599 294.486 315.045 295.806 315.149C297.126 315.253 295.053 316.803 294.66 317.648C285.618 337.111 271.157 362.524 271.157 362.524C271.157 362.524 274.165 370.95 278.91 366.239C283.656 361.527 315.403 319.675 315.403 319.675C315.403 319.675 314.975 322.4 314.378 326.543C312.535 339.341 309.639 365.107 312.212 366.441C314.266 367.501 316.565 367.997 318.875 367.88C318.875 367.88 335.901 328.643 333.651 321.17" fill="#2F2E41"/>
<path d="M322.044 233.553L320.217 229.768L310.319 230.963L309.295 234.051C306.427 236.907 304.064 240.226 302.307 243.868C299.568 249.699 308.683 275.456 307.183 276.951C305.683 278.446 300.126 279.251 302.626 281.082C305.126 282.913 302.626 281.742 302.003 283.831C301.38 285.92 300.153 294.235 300.153 294.235C300.153 294.235 309.67 302.186 315.67 290.228C324.419 290.975 326.168 282.754 326.168 282.754L329.11 277.899C332.926 276.159 327.043 256.223 328.543 252.237C330.043 248.251 322.044 233.553 322.044 233.553Z" fill="#BDFAA3"/>
<path d="M331.09 276.229C331.113 274.765 331.108 273.188 331.761 271.839C332.251 270.826 333.16 269.814 334.358 269.729C335.377 269.657 336.534 270.257 336.628 271.361C336.739 272.673 335.631 273.926 334.733 274.755C333.649 275.747 332.328 276.449 330.897 276.792C330.796 276.822 330.707 276.88 330.639 276.96C330.571 277.04 330.528 277.137 330.514 277.241C330.501 277.345 330.517 277.45 330.562 277.544C330.607 277.639 330.679 277.718 330.768 277.773C331.908 278.401 332.915 279.243 333.735 280.252C334.493 281.184 335.276 282.415 335.435 283.628C335.503 284.145 335.411 284.773 334.862 284.989C334.341 285.194 333.707 284.927 333.259 284.663C332.207 283.965 331.382 282.975 330.887 281.816C330.275 280.503 330.069 279.039 330.295 277.609C330.406 276.933 329.368 276.642 329.256 277.323C328.762 280.325 329.964 283.901 332.66 285.556C333.886 286.309 335.757 286.441 336.372 284.852C336.93 283.412 336.007 281.682 335.236 280.498C334.247 278.979 332.899 277.725 331.312 276.846L331.183 277.827C332.748 277.444 334.193 276.681 335.392 275.608C336.539 274.582 337.774 273.058 337.71 271.431C337.653 269.97 336.481 268.909 335.076 268.696C333.548 268.463 332.185 269.293 331.309 270.496C330.109 272.145 330.043 274.27 330.012 276.229C330.017 276.368 330.076 276.5 330.177 276.596C330.277 276.693 330.411 276.747 330.551 276.747C330.691 276.747 330.825 276.693 330.926 276.596C331.026 276.5 331.085 276.368 331.09 276.229L331.09 276.229Z" fill="#2F2E41"/>
<path d="M287.329 296.734C288.008 296.381 288.523 295.778 288.763 295.053C289.003 294.328 288.95 293.538 288.615 292.851C288.544 292.713 288.463 292.58 288.37 292.455L300.944 274.096L295.944 268.769L284.215 292.022C283.725 292.443 283.388 293.015 283.258 293.647C283.127 294.28 283.21 294.937 283.494 295.518C283.659 295.846 283.887 296.139 284.166 296.38C284.444 296.621 284.768 296.805 285.117 296.921C285.467 297.037 285.836 297.083 286.204 297.057C286.572 297.031 286.931 296.934 287.26 296.769C287.283 296.758 287.306 296.746 287.329 296.734Z" fill="#FFB6B6"/>
<path d="M322.531 242.906C322.531 242.906 320.619 236.731 312.596 241.518C304.573 246.305 296.22 263.607 296.164 264.779C296.107 265.951 297.175 264.95 295.438 267.061C294.024 268.778 295.482 269.38 294.758 269.477C292.849 269.733 296.237 272.062 293.866 271.848C291.495 271.633 299.348 276.888 299.348 276.888C299.348 276.888 300.752 276.817 301.744 273.805C302.301 272.113 301.702 270.981 303.137 270.95C304.572 270.918 303.867 267.539 304.158 267.083C304.45 266.626 314.037 258.688 314.037 258.688L322.531 242.906Z" fill="#BDFAA3"/>
<path d="M309.975 212.442C315.874 205.662 305.387 223.614 313.222 230.613C310.029 233.138 298.317 232.242 298.978 230.613C299.64 228.984 301.81 213.441 304.137 212.442C306.465 211.444 309.975 212.442 309.975 212.442Z" fill="#2F2E41"/>
<path d="M301.933 297.541C302.108 296.85 301.443 296.087 300.448 295.836C299.452 295.584 298.503 295.94 298.328 296.63C298.152 297.32 298.817 298.084 299.812 298.335C300.808 298.586 301.757 298.231 301.933 297.541Z" fill="white"/>
<path d="M289.776 297.462C289.952 296.772 289.287 296.009 288.292 295.758C287.296 295.506 286.347 295.862 286.171 296.552C285.996 297.242 286.661 298.005 287.656 298.257C288.651 298.508 289.601 298.153 289.776 297.462Z" fill="#525252"/>
<path d="M304.214 307.592C304.389 306.901 303.724 306.138 302.729 305.887C301.734 305.635 300.784 305.991 300.609 306.681C300.433 307.371 301.098 308.135 302.094 308.386C303.089 308.637 304.038 308.282 304.214 307.592Z" fill="#EEF2EE"/>
<path d="M307.047 311.382C307.12 310.739 306.814 310.177 306.366 310.127C305.917 310.077 305.495 310.558 305.423 311.201C305.351 311.843 305.656 312.405 306.105 312.455C306.553 312.505 306.975 312.024 307.047 311.382Z" fill="#E6E6E6"/>
<path d="M308.047 318.973C308.119 318.33 307.814 317.769 307.365 317.719C306.916 317.669 306.494 318.149 306.422 318.792C306.35 319.435 306.655 319.997 307.104 320.047C307.553 320.097 307.975 319.616 308.047 318.973Z" fill="#525252"/>
<path d="M295.619 304.506C295.691 303.863 295.386 303.301 294.937 303.252C294.488 303.202 294.066 303.682 293.994 304.325C293.922 304.968 294.227 305.529 294.676 305.579C295.125 305.629 295.547 305.149 295.619 304.506Z" fill="#E6E6E6"/>
<path d="M301.737 302.215C301.809 301.573 301.503 301.011 301.055 300.961C300.606 300.911 300.184 301.392 300.112 302.034C300.04 302.677 300.345 303.239 300.794 303.289C301.242 303.339 301.665 302.858 301.737 302.215Z" fill="#EEF2EE"/>
<path d="M294.2 296.027C294.272 295.385 293.967 294.823 293.518 294.773C293.069 294.723 292.647 295.204 292.575 295.846C292.503 296.489 292.808 297.051 293.257 297.101C293.706 297.151 294.128 296.67 294.2 296.027Z" fill="#525252"/>
<path d="M373.411 279.642C373.587 278.952 372.922 278.189 371.927 277.938C370.931 277.686 369.982 278.042 369.807 278.732C369.631 279.422 370.296 280.185 371.291 280.437C372.287 280.688 373.236 280.333 373.411 279.642Z" fill="white"/>
<path d="M361.255 279.564C361.431 278.874 360.766 278.111 359.77 277.86C358.775 277.608 357.826 277.964 357.65 278.654C357.475 279.344 358.139 280.107 359.135 280.359C360.13 280.61 361.08 280.254 361.255 279.564Z" fill="#525252"/>
<path d="M375.693 289.694C375.868 289.003 375.203 288.24 374.208 287.989C373.212 287.737 372.263 288.093 372.088 288.783C371.912 289.473 372.577 290.236 373.572 290.488C374.568 290.739 375.517 290.384 375.693 289.694Z" fill="#EEF2EE"/>
<path d="M378.526 293.483C378.598 292.841 378.293 292.279 377.844 292.229C377.396 292.179 376.973 292.66 376.901 293.303C376.829 293.945 377.135 294.507 377.583 294.557C378.032 294.607 378.454 294.126 378.526 293.483Z" fill="#E6E6E6"/>
<path d="M379.526 301.075C379.598 300.432 379.293 299.871 378.844 299.821C378.395 299.771 377.973 300.251 377.901 300.894C377.829 301.537 378.134 302.099 378.583 302.149C379.032 302.198 379.454 301.718 379.526 301.075Z" fill="#525252"/>
<path d="M367.098 286.608C367.17 285.965 366.865 285.403 366.416 285.353C365.967 285.303 365.545 285.784 365.473 286.427C365.401 287.07 365.706 287.631 366.155 287.681C366.604 287.731 367.026 287.25 367.098 286.608Z" fill="#E6E6E6"/>
<path d="M373.215 284.317C373.287 283.675 372.982 283.113 372.533 283.063C372.085 283.013 371.663 283.494 371.591 284.136C371.519 284.779 371.824 285.341 372.273 285.391C372.721 285.441 373.143 284.96 373.215 284.317Z" fill="#EEF2EE"/>
<path d="M365.679 278.129C365.751 277.487 365.446 276.925 364.997 276.875C364.548 276.825 364.126 277.306 364.054 277.948C363.982 278.591 364.287 279.153 364.736 279.203C365.185 279.253 365.607 278.772 365.679 278.129Z" fill="#525252"/>
<path d="M276.789 225.948C276.965 225.258 276.3 224.495 275.305 224.243C274.309 223.992 273.36 224.348 273.184 225.038C273.009 225.728 273.674 226.491 274.669 226.742C275.664 226.994 276.614 226.638 276.789 225.948Z" fill="white"/>
<path d="M264.633 225.87C264.808 225.18 264.144 224.417 263.148 224.165C262.153 223.914 261.204 224.269 261.028 224.96C260.853 225.65 261.517 226.413 262.513 226.664C263.508 226.916 264.457 226.56 264.633 225.87Z" fill="#525252"/>
<path d="M279.07 235.999C279.246 235.309 278.581 234.546 277.586 234.294C276.59 234.043 275.641 234.399 275.466 235.089C275.29 235.779 275.955 236.542 276.95 236.793C277.946 237.045 278.895 236.689 279.07 235.999Z" fill="#EEF2EE"/>
<path d="M281.904 239.789C281.976 239.146 281.671 238.585 281.222 238.535C280.774 238.485 280.351 238.965 280.279 239.608C280.207 240.251 280.513 240.813 280.961 240.863C281.41 240.912 281.832 240.432 281.904 239.789Z" fill="#E6E6E6"/>
<path d="M282.904 247.381C282.976 246.738 282.671 246.176 282.222 246.126C281.773 246.076 281.351 246.557 281.279 247.2C281.207 247.843 281.512 248.404 281.961 248.454C282.41 248.504 282.832 248.024 282.904 247.381Z" fill="#525252"/>
<path d="M270.476 232.913C270.548 232.271 270.242 231.709 269.794 231.659C269.345 231.609 268.923 232.09 268.851 232.732C268.779 233.375 269.084 233.937 269.533 233.987C269.981 234.037 270.404 233.556 270.476 232.913Z" fill="#E6E6E6"/>
<path d="M276.593 230.623C276.665 229.98 276.36 229.419 275.911 229.369C275.463 229.319 275.041 229.799 274.968 230.442C274.896 231.085 275.202 231.646 275.65 231.696C276.099 231.746 276.521 231.266 276.593 230.623Z" fill="#EEF2EE"/>
<path d="M269.057 224.435C269.129 223.792 268.823 223.231 268.375 223.181C267.926 223.131 267.504 223.611 267.432 224.254C267.36 224.897 267.665 225.458 268.114 225.508C268.562 225.558 268.985 225.078 269.057 224.435Z" fill="#525252"/>
<path d="M333.9 179.771C334.076 179.081 333.411 178.318 332.416 178.066C331.42 177.815 330.471 178.17 330.296 178.861C330.12 179.551 330.785 180.314 331.78 180.565C332.776 180.817 333.725 180.461 333.9 179.771Z" fill="white"/>
<path d="M321.744 179.693C321.92 179.003 321.255 178.24 320.259 177.988C319.264 177.737 318.315 178.092 318.139 178.782C317.964 179.473 318.628 180.236 319.624 180.487C320.619 180.739 321.569 180.383 321.744 179.693Z" fill="#525252"/>
<path d="M336.182 189.822C336.357 189.132 335.692 188.369 334.697 188.117C333.702 187.866 332.752 188.221 332.577 188.912C332.401 189.602 333.066 190.365 334.061 190.616C335.057 190.868 336.006 190.512 336.182 189.822Z" fill="#EEF2EE"/>
<path d="M339.015 193.612C339.087 192.969 338.782 192.408 338.333 192.358C337.885 192.308 337.463 192.788 337.391 193.431C337.318 194.074 337.624 194.635 338.073 194.685C338.521 194.735 338.943 194.255 339.015 193.612Z" fill="#E6E6E6"/>
<path d="M340.015 201.204C340.087 200.561 339.782 199.999 339.333 199.949C338.884 199.899 338.462 200.38 338.39 201.023C338.318 201.665 338.623 202.227 339.072 202.277C339.521 202.327 339.943 201.846 340.015 201.204Z" fill="#525252"/>
<path d="M327.587 186.736C327.659 186.093 327.354 185.532 326.905 185.482C326.456 185.432 326.034 185.913 325.962 186.555C325.89 187.198 326.195 187.76 326.644 187.81C327.093 187.86 327.515 187.379 327.587 186.736Z" fill="#E6E6E6"/>
<path d="M333.705 184.446C333.777 183.803 333.471 183.241 333.023 183.192C332.574 183.142 332.152 183.622 332.08 184.265C332.008 184.908 332.313 185.469 332.762 185.519C333.21 185.569 333.633 185.089 333.705 184.446Z" fill="#EEF2EE"/>
<path d="M326.168 178.258C326.24 177.615 325.935 177.054 325.486 177.004C325.037 176.954 324.615 177.434 324.543 178.077C324.471 178.72 324.776 179.281 325.225 179.331C325.674 179.381 326.096 178.901 326.168 178.258Z" fill="#525252"/>
<path d="M349.162 377.795C349.329 377.803 349.494 377.759 349.635 377.67C349.776 377.581 349.887 377.451 349.951 377.297C350.016 377.144 350.031 376.974 349.995 376.811C349.96 376.649 349.875 376.501 349.752 376.388L349.696 376.166C349.704 376.148 349.711 376.131 349.719 376.113C349.887 375.717 350.169 375.38 350.529 375.143C350.889 374.906 351.311 374.781 351.743 374.782C352.174 374.784 352.595 374.912 352.954 375.152C353.312 375.391 353.591 375.731 353.756 376.128C354.417 377.713 355.258 379.301 355.465 380.977C355.556 381.718 355.517 382.469 355.351 383.197C356.902 379.825 357.708 376.16 357.713 372.45C357.713 371.519 357.661 370.589 357.557 369.664C357.471 368.906 357.352 368.153 357.2 367.405C356.369 363.349 354.584 359.547 351.992 356.312C350.737 355.63 349.723 354.581 349.085 353.307C348.854 352.848 348.69 352.359 348.6 351.855C348.741 351.873 349.134 349.725 349.027 349.593C349.224 349.295 349.577 349.147 349.792 348.856C350.864 347.409 352.339 347.661 353.11 349.628C354.756 350.456 354.772 351.829 353.762 353.149C353.119 353.989 353.031 355.126 352.467 356.026C352.525 356.1 352.586 356.171 352.644 356.245C353.704 357.604 354.628 359.063 355.403 360.601C355.214 358.878 355.439 357.134 356.059 355.515C356.687 354.005 357.864 352.734 358.9 351.428C359.174 351.078 359.546 350.816 359.97 350.676C360.393 350.537 360.849 350.525 361.278 350.643C361.708 350.761 362.094 351.004 362.385 351.34C362.677 351.676 362.862 352.091 362.917 352.532C362.919 352.551 362.921 352.571 362.923 352.59C362.769 352.676 362.619 352.768 362.471 352.865C362.286 352.989 362.143 353.165 362.059 353.371C361.976 353.577 361.958 353.803 362.006 354.02C362.054 354.237 362.167 354.434 362.33 354.586C362.492 354.738 362.697 354.837 362.917 354.871L362.94 354.874C362.885 355.427 362.788 355.975 362.65 356.513C363.979 361.638 361.109 363.504 357.01 363.588C356.919 363.634 356.831 363.681 356.741 363.725C357.519 365.923 358.007 368.212 358.193 370.536C358.298 371.907 358.292 373.284 358.174 374.654L358.181 374.605C358.478 373.082 359.294 371.707 360.49 370.714C362.266 369.26 364.776 368.724 366.692 367.555C366.896 367.425 367.133 367.355 367.375 367.355C367.617 367.354 367.854 367.422 368.058 367.552C368.263 367.681 368.426 367.866 368.528 368.085C368.63 368.303 368.668 368.546 368.636 368.785L368.628 368.837C368.342 368.952 368.064 369.086 367.795 369.236C367.641 369.323 367.491 369.415 367.343 369.512C367.158 369.635 367.014 369.812 366.931 370.018C366.848 370.224 366.83 370.45 366.878 370.667C366.926 370.883 367.039 371.081 367.201 371.232C367.364 371.384 367.569 371.484 367.789 371.517L367.812 371.521C367.828 371.523 367.842 371.525 367.858 371.528C367.37 372.689 366.685 373.758 365.833 374.688C365.001 379.162 361.43 379.586 357.611 378.283H357.608C357.189 380.098 356.582 381.865 355.796 383.555H349.324C349.301 383.483 349.28 383.409 349.259 383.338C349.858 383.375 350.459 383.339 351.05 383.231C350.57 382.644 350.089 382.052 349.609 381.465C349.598 381.454 349.588 381.442 349.579 381.43C349.335 381.13 349.089 380.831 348.846 380.531L348.846 380.53C348.833 379.609 348.939 378.69 349.161 377.796L349.162 377.795Z" fill="#F2F2F2"/>
</g>
<defs>
<clipPath id="clip0_859_3479">
<rect width="128" height="207" fill="white" transform="translate(261 177)"/>
</clipPath>
</defs>
</svg>
