<svg width="31" height="20" viewBox="0 0 31 20" fill="none" xmlns="http://www.w3.org/2000/svg">
<path d="M7.5835 10.4788C7.5835 10.8674 7.68548 11.256 7.75347 11.594C8.24639 14.3482 12.6487 20.8198 18.3768 19.8229C24.1049 18.826 26.0426 11.256 25.5157 8.45109L25.4137 7.84279C26.0835 7.78984 26.7361 7.60584 27.3341 7.30136C27.932 6.99689 28.4636 6.57794 28.8982 6.06859C29.7116 5.3133 30.19 4.26783 30.2282 3.16201C30.2665 2.05618 29.8614 0.980517 29.1021 0.17147C28.0653 -0.690287 25.1588 1.86119 23.612 4.14231C22.2352 2.79053 19.7876 1.96257 15.3343 2.73984C13.4631 2.99336 11.6672 3.63837 10.0651 4.63233C6.76763 1.94567 1.73642 -0.436829 0.750572 1.25289C0.00391477 2.5539 -0.19533 4.09551 0.196266 5.5419C0.587862 6.98828 1.53856 8.22222 2.84124 8.97491C4.30593 9.79635 5.91597 10.3299 7.5835 10.5463V10.4788Z" fill="#698665"/>
</svg>
