<svg width="26" height="26" viewBox="0 0 26 26" fill="none" xmlns="http://www.w3.org/2000/svg">
<path d="M7.25263 7.25256C6.79918 7.25256 6.43158 7.62016 6.43158 8.07362V17.9262C6.43158 18.3797 6.79918 18.7473 7.25263 18.7473C7.70609 18.7473 8.07368 18.3797 8.07368 17.9262V8.07362C8.07368 7.62016 7.70609 7.25256 7.25263 7.25256Z" fill="#698665"/>
<path d="M15.7036 14.8825C15.383 15.2032 15.383 15.723 15.7036 16.0437C16.0243 16.3643 16.5441 16.3643 16.8648 16.0437L19.3279 13.5805C19.4819 13.4265 19.5684 13.2177 19.5684 12.9999C19.5684 12.7822 19.4819 12.5733 19.3279 12.4194L16.8648 9.9562C16.5441 9.63556 16.0243 9.63556 15.7036 9.9562C15.383 10.2768 15.383 10.7967 15.7036 11.1173L16.7652 12.1789L10.5368 12.1789C10.0834 12.1789 9.71579 12.5465 9.71579 12.9999C9.71579 13.4534 10.0834 13.821 10.5368 13.821H16.7652L15.7036 14.8825Z" fill="#698665"/>
<rect x="0.5" y="0.5" width="25" height="25" rx="3.5" stroke="#698665"/>
</svg>
