<svg width="375" height="411" viewBox="0 0 375 411" fill="none" xmlns="http://www.w3.org/2000/svg">
<g clip-path="url(#clip0_1901_3880)">
<path d="M-16.362 330.186C-17.5219 327.907 -18.5999 325.554 -19.5659 323.19L-18.4088 322.716C-17.4553 325.048 -16.3919 327.37 -15.2476 329.617L-16.362 330.186ZM-22.1794 315.953C-22.9466 313.517 -23.621 311.017 -24.1843 308.525L-22.9643 308.248C-22.409 310.708 -21.7437 313.173 -20.9868 315.577L-22.1794 315.953ZM-25.5671 300.955C-25.9215 298.429 -26.1755 295.854 -26.3227 293.299L-25.074 293.227C-24.9293 295.748 -24.6783 298.289 -24.3287 300.781L-25.5671 300.955ZM-25.2028 285.635L-26.4528 285.606C-26.3926 283.048 -26.2265 280.465 -25.9594 277.93L-24.7156 278.061C-24.9793 280.563 -25.1433 283.111 -25.2028 285.635H-25.2028ZM-23.61 270.553L-24.8386 270.32C-24.3623 267.81 -23.7752 265.289 -23.0934 262.828L-21.8881 263.162C-22.561 265.59 -23.1402 268.077 -23.61 270.553ZM-19.5598 255.939L-20.7328 255.506C-19.8486 253.108 -18.8524 250.717 -17.7719 248.4L-16.6386 248.929C-17.7047 251.216 -18.6875 253.574 -19.5598 255.939ZM151.705 252.07C150.728 249.75 149.64 247.44 148.472 245.205L149.58 244.625C150.764 246.891 151.867 249.232 152.857 251.584L151.705 252.07ZM-13.1486 242.186L-14.2343 241.565C-12.9679 239.348 -11.5924 237.155 -10.1462 235.046L-9.11547 235.755C-10.5422 237.835 -11.8993 239.999 -13.1486 242.186ZM144.683 238.629C143.336 236.5 141.884 234.4 140.366 232.388L141.364 231.634C142.903 233.674 144.374 235.802 145.739 237.96L144.683 238.629ZM-4.5679 229.677L-5.53756 228.886C-3.9243 226.905 -2.20969 224.967 -0.440418 223.126L0.460857 223.993C-1.2846 225.81 -2.97663 227.722 -4.5679 229.677ZM135.553 226.522C133.875 224.64 132.099 222.805 130.275 221.069L131.137 220.162C132.986 221.922 134.786 223.781 136.486 225.688L135.553 226.522ZM5.93719 218.74L5.1098 217.802C7.02317 216.112 9.03058 214.48 11.0762 212.951L11.8242 213.954C9.80578 215.462 7.82522 217.072 5.93719 218.74ZM124.569 216.066C122.607 214.484 120.556 212.964 118.472 211.548L119.174 210.512C121.286 211.947 123.365 213.488 125.353 215.091L124.569 216.066ZM18.0818 209.669L17.4187 208.608C19.5839 207.252 21.8304 205.972 24.0961 204.801L24.6694 205.914C22.4343 207.068 20.218 208.332 18.0818 209.669V209.669ZM112.025 207.547C109.828 206.306 107.555 205.143 105.27 204.091L105.793 202.954C108.109 204.021 110.413 205.199 112.64 206.457L112.025 207.547ZM31.5432 202.716L31.0632 201.56C33.4199 200.58 35.8456 199.688 38.2731 198.907L38.6554 200.099C36.2608 200.869 33.8678 201.749 31.5432 202.716L31.5432 202.716ZM98.2526 201.206C95.8859 200.346 93.4525 199.575 91.0205 198.914L91.3484 197.706C93.8134 198.376 96.28 199.158 98.6794 200.029L98.2526 201.206ZM45.9651 198.08L45.683 196.861C48.1663 196.285 50.7077 195.805 53.236 195.436L53.4167 196.674C50.9224 197.039 48.4155 197.512 45.965 198.08L45.9651 198.08ZM83.6234 197.23C81.1516 196.774 78.6252 196.415 76.1143 196.164L76.2389 194.919C78.7837 195.174 81.3446 195.537 83.85 195.999L83.6234 197.23ZM60.9588 195.887L60.88 194.638C63.4236 194.477 66.0169 194.42 68.5653 194.466L68.5427 195.718C66.026 195.672 63.469 195.729 60.9588 195.887V195.887Z" fill="#3F3D56"/>
<path d="M155.472 262.84C155.137 261.649 154.773 260.448 154.39 259.271L155.578 258.883C155.967 260.076 156.336 261.293 156.675 262.501L155.472 262.84Z" fill="#3F3D56"/>
<path d="M179.11 222.787H177.859C177.859 221.535 177.881 220.264 177.925 219.011L179.175 219.054C179.132 220.293 179.11 221.549 179.11 222.787Z" fill="#3F3D56"/>
<path d="M179.705 211.528L178.461 211.395C178.729 208.874 179.092 206.333 179.538 203.842L180.769 204.064C180.328 206.525 179.97 209.037 179.705 211.528ZM182.367 196.695L181.156 196.386C181.782 193.93 182.505 191.467 183.306 189.066L184.492 189.462C183.701 191.835 182.986 194.268 182.367 196.695ZM381.806 183.49C380.871 181.168 379.84 178.85 378.741 176.603L379.864 176.053C380.976 178.327 382.02 180.672 382.966 183.023L381.806 183.49ZM187.135 182.393L185.981 181.912C186.953 179.574 188.024 177.239 189.164 174.973L190.28 175.536C189.154 177.775 188.096 180.082 187.135 182.393ZM375.188 169.953C373.931 167.791 372.579 165.645 371.169 163.575L372.202 162.87C373.629 164.964 374.997 167.135 376.269 169.324L375.188 169.953ZM193.91 168.923L192.837 168.281C194.133 166.108 195.526 163.951 196.978 161.871L198.004 162.588C196.568 164.644 195.191 166.775 193.91 168.923V168.923ZM366.704 157.5C365.149 155.536 363.505 153.604 361.818 151.759L362.74 150.914C364.447 152.781 366.111 154.735 367.685 156.723L366.704 157.5ZM202.538 156.563L201.567 155.775C203.162 153.806 204.848 151.87 206.577 150.022L207.49 150.878C205.781 152.704 204.115 154.617 202.538 156.563V156.563ZM356.536 146.381C354.718 144.658 352.816 142.98 350.883 141.393L351.676 140.425C353.632 142.031 355.556 143.729 357.395 145.472L356.536 146.381ZM212.833 145.56L211.983 144.642C213.84 142.921 215.783 141.245 217.758 139.661L218.54 140.637C216.588 142.203 214.668 143.86 212.833 145.56L212.833 145.56ZM344.89 136.82C342.847 135.374 340.726 133.983 338.586 132.688L339.233 131.617C341.398 132.928 343.545 134.335 345.612 135.798L344.89 136.82ZM224.582 136.134L223.871 135.105C225.953 133.666 228.114 132.285 230.294 130.998L230.929 132.076C228.774 133.348 226.639 134.713 224.582 136.134ZM332.002 129.018C329.773 127.878 327.475 126.806 325.172 125.831L325.659 124.679C327.99 125.665 330.315 126.75 332.571 127.903L332.002 129.018ZM237.549 128.484L236.993 127.363C239.258 126.238 241.593 125.18 243.933 124.22L244.408 125.378C242.095 126.327 239.787 127.372 237.549 128.484H237.549ZM318.13 123.146C315.764 122.339 313.336 121.609 310.912 120.975L311.228 119.764C313.681 120.406 316.139 121.145 318.533 121.961L318.13 123.146ZM251.47 122.775L251.08 121.586C253.483 120.798 255.948 120.087 258.405 119.473L258.708 120.687C256.28 121.294 253.844 121.996 251.47 122.775ZM303.558 119.333C301.1 118.876 298.592 118.503 296.106 118.223L296.246 116.98C298.761 117.262 301.299 117.64 303.787 118.102L303.558 119.333ZM266.078 119.127L265.864 117.893C268.355 117.459 270.896 117.11 273.416 116.855L273.542 118.1C271.052 118.352 268.54 118.697 266.078 119.127ZM288.594 117.65C286.09 117.548 283.544 117.534 281.059 117.609L281.021 116.358C283.536 116.282 286.111 116.296 288.645 116.399L288.594 117.65Z" fill="#3F3D56"/>
<path d="M124.488 250.843L253.051 323.392L101.237 411L-25.9592 335.712L124.488 250.843Z" fill="#BDFAA3"/>
<path d="M321.436 142.702L450 215.252L298.185 302.86L170.99 227.572L321.436 142.702Z" fill="#BDFAA3"/>
<path d="M124.488 243.998L253.051 316.548L101.237 404.156L-25.9592 328.868L124.488 243.998Z" fill="#87AA82"/>
<path d="M321.436 135.858L450 208.408L298.185 296.015L170.99 220.728L321.436 135.858Z" fill="#87AA82"/>
<path d="M351.271 115.437C355.522 110.659 358.549 104.919 360.092 98.7105C361.635 92.502 361.647 86.0112 360.128 79.7969C358.608 73.5826 355.603 67.831 351.369 63.0373C347.136 58.2435 341.802 54.5513 335.827 52.2785C341.16 49.1904 345.327 44.4279 347.681 38.7291C350.035 33.0303 350.445 26.7135 348.847 20.7577C347.25 14.802 343.734 9.53986 338.845 5.78697C333.956 2.03408 327.967 0 321.806 0C315.644 0 309.655 2.03408 304.766 5.78697C299.877 9.53986 296.362 14.802 294.764 20.7577C293.167 26.7135 293.577 33.0303 295.931 38.7291C298.285 44.4279 302.451 49.1904 307.785 52.2785C301.816 54.5485 296.488 58.2347 292.257 63.0205C288.026 67.8062 285.019 73.5484 283.494 79.7538C281.969 85.9592 281.973 92.4423 283.504 98.6461C285.034 104.85 288.047 110.589 292.283 115.371C282.308 121.742 274.666 131.178 270.501 142.264C266.336 153.35 265.874 165.488 269.184 176.859C272.494 188.23 279.397 198.221 288.858 205.334C298.32 212.447 309.83 216.299 321.663 216.312C333.497 216.325 345.016 212.499 354.493 205.408C363.971 198.316 370.896 188.341 374.232 176.978C377.567 165.614 377.132 153.475 372.992 142.38C368.853 131.285 361.231 121.831 351.271 115.437Z" fill="#ECFCE5"/>
<path d="M158.015 240.49C158.015 269.371 140.863 279.455 119.701 279.455C119.211 279.455 118.72 279.447 118.234 279.437C117.253 279.416 116.28 279.37 115.321 279.303C96.2219 277.951 81.3862 267.349 81.3862 240.49C81.3862 212.699 116.869 177.627 119.542 175.026C119.542 175.025 119.542 175.025 119.542 175.024C119.542 175.024 119.543 175.024 119.543 175.023C119.543 175.023 119.544 175.023 119.544 175.023C119.545 175.022 119.545 175.022 119.546 175.022C119.648 174.92 119.701 174.87 119.701 174.87C119.701 174.87 158.015 211.612 158.015 240.49Z" fill="#ECFCE5"/>
<path d="M118.304 275.036L132.318 255.44L118.269 277.189L118.234 279.437C117.254 279.416 116.28 279.37 115.321 279.303L116.83 250.411L116.82 250.185L116.844 250.146L116.989 247.414L102.905 225.613L117.031 245.367L117.067 245.946L118.206 224.117L106.149 201.588L118.354 220.287L119.542 175.026L119.546 174.87V175.022L119.348 210.712L131.352 196.562L119.299 213.786L118.981 233.332L130.192 214.573L118.936 236.208L118.759 247.076L135.027 220.965L118.696 250.866L118.304 275.036Z" fill="#3F3D56"/>
<path d="M40.3932 292.507C40.3932 321.388 23.2407 331.472 2.07867 331.472C1.5885 331.472 1.09834 331.464 0.611691 331.454C-0.368664 331.433 -1.34194 331.387 -2.30113 331.32C-21.4002 329.968 -36.2358 319.366 -36.2358 292.507C-36.2358 264.716 -0.753029 229.644 1.91998 227.043C1.91997 227.042 1.92005 227.042 1.92023 227.041C1.9204 227.041 1.92067 227.041 1.92099 227.04C1.92133 227.04 1.92171 227.04 1.92215 227.039C1.92258 227.039 1.92305 227.039 1.92352 227.039C2.02579 226.937 2.07867 226.887 2.07867 226.887C2.07867 226.887 40.3932 263.629 40.3932 292.507Z" fill="#ECFCE5"/>
<path d="M0.682326 327.053L14.6963 307.457L0.647057 329.206L0.611794 331.454C-0.368559 331.433 -1.34183 331.387 -2.30103 331.32L-0.791726 302.428L-0.802301 302.202L-0.777621 302.163L-0.633051 299.431L-14.7175 277.63L-0.590713 297.384L-0.555434 297.963L0.583592 276.134L-11.4732 253.605L0.731686 272.304L1.92008 227.043L1.92362 226.887V227.039L1.72614 262.729L13.7301 248.579L1.67677 265.803L1.3594 285.349L12.5699 266.59L1.31355 288.225L1.13721 299.093L17.4046 272.982L1.07375 302.883L0.682326 327.053Z" fill="#3F3D56"/>
<path d="M231.148 204.069C227.289 204.069 223.517 205.214 220.309 207.36C217.1 209.505 214.6 212.555 213.123 216.123C211.647 219.691 211.26 223.617 212.013 227.404C212.766 231.192 214.624 234.671 217.352 237.402C220.081 240.133 223.557 241.992 227.342 242.746C231.126 243.499 235.049 243.113 238.614 241.635C242.178 240.157 245.225 237.654 247.369 234.443C249.513 231.232 250.657 227.457 250.657 223.595C250.657 221.031 250.152 218.492 249.172 216.123C248.192 213.754 246.754 211.601 244.943 209.788C243.131 207.975 240.981 206.536 238.614 205.555C236.247 204.574 233.71 204.069 231.148 204.069ZM232.337 225.262C231.584 225.262 230.848 225.038 230.222 224.62C229.596 224.201 229.108 223.606 228.82 222.91C228.532 222.214 228.457 221.448 228.604 220.709C228.751 219.969 229.113 219.291 229.645 218.758C230.178 218.225 230.856 217.862 231.595 217.715C232.333 217.568 233.098 217.644 233.794 217.932C234.49 218.22 235.084 218.709 235.502 219.335C235.921 219.962 236.144 220.698 236.144 221.452C236.144 222.462 235.743 223.431 235.029 224.146C234.315 224.86 233.347 225.262 232.337 225.262Z" fill="#698665"/>
<path d="M251.83 190.208C251.4 190.678 243.483 198.217 243.483 198.217C243.483 198.217 244.269 203.479 252.74 204.132L266.859 205.22C266.859 205.22 269.527 215.021 272.7 218.154C275.873 221.286 274.417 221.461 275.608 222.987C276.798 224.514 275.127 224.923 276.935 225.072C278.742 225.22 282.477 223.033 282.517 221.341C282.518 220.747 282.386 220.161 282.129 219.625C281.872 219.09 281.498 218.62 281.035 218.249C280.566 217.818 279.378 213.7 278.665 212.829C277.953 211.958 275.255 201.482 275.255 201.482C275.255 201.482 272.563 196.414 268.831 196.01C265.099 195.605 260.946 193.788 260.946 193.788" fill="#2F2E41"/>
<path opacity="0.1" d="M251.83 190.208C251.4 190.678 243.483 198.217 243.483 198.217C243.483 198.217 244.269 203.479 252.74 204.132L266.859 205.22C266.859 205.22 269.527 215.021 272.7 218.154C275.873 221.286 274.417 221.461 275.608 222.987C276.798 224.514 275.127 224.923 276.935 225.072C278.742 225.22 282.477 223.033 282.517 221.341C282.518 220.747 282.386 220.161 282.129 219.625C281.872 219.09 281.498 218.62 281.035 218.249C280.566 217.818 279.378 213.7 278.665 212.829C277.953 211.958 275.255 201.482 275.255 201.482C275.255 201.482 272.563 196.414 268.831 196.01C265.099 195.605 260.946 193.788 260.946 193.788" fill="black"/>
<path d="M265.525 159.808C265.525 159.808 268.496 151.727 270.53 154.302C272.564 156.877 267.258 161.104 267.258 161.104L265.525 159.808Z" fill="#A0616A"/>
<path d="M249.874 164.026L251.566 163.309C251.566 163.309 254.637 166.535 255.856 167.135C257.076 167.735 260.408 169.187 260.851 169.425C261.294 169.664 266.309 160.784 265.109 159.509C265.109 159.509 267.354 160.319 268.376 160.012C268.376 160.012 265.825 172.391 265.437 174.069C265.049 175.746 264.142 175.944 262.453 176.006C260.763 176.067 250.502 173.054 250.502 173.054L249.874 164.026Z" fill="#BDFAA3"/>
<path d="M275.975 224.011C275.975 224.011 276.498 225.69 276.265 225.959C276.032 226.228 275.35 230.819 278.152 230.518C280.955 230.218 282.303 229.314 283.012 229.365C283.722 229.415 294.252 225.738 293.729 224.059C293.206 222.38 287.941 224.219 287.941 224.219C287.941 224.219 281.96 223.08 280.556 221.767C279.151 220.454 275.975 224.011 275.975 224.011Z" fill="#2F2E41"/>
<path opacity="0.1" d="M275.975 224.011C275.975 224.011 276.498 225.69 276.265 225.959C276.032 226.228 275.35 230.819 278.152 230.518C280.955 230.218 282.303 229.314 283.012 229.365C283.722 229.415 294.252 225.738 293.729 224.059C293.206 222.38 287.941 224.219 287.941 224.219C287.941 224.219 281.96 223.08 280.556 221.767C279.151 220.454 275.975 224.011 275.975 224.011Z" fill="black"/>
<path d="M270.606 226.482C270.606 226.482 272.297 233.853 273.537 233.778C274.777 233.703 283.531 229.439 284.608 228.594C285.991 227.51 285.937 225.594 284.349 225.996C282.762 226.399 278.271 226.038 277.508 225.226L275.546 223.14L270.606 226.482Z" fill="#2F2E41"/>
<path d="M253.276 185.526C252.813 185.963 238.723 197.925 238.723 197.925C238.723 197.925 239.877 205.659 248.278 206.926C256.679 208.194 261.529 206.611 261.529 206.611C261.529 206.611 263.478 216.581 266.415 219.935C269.352 223.29 267.887 223.359 268.964 224.968C270.041 226.577 268.344 226.864 270.136 227.143C271.928 227.422 275.812 225.513 275.975 223.828C276.019 223.236 275.93 222.642 275.712 222.089C275.495 221.537 275.156 221.04 274.721 220.637C274.285 220.173 273.399 215.98 272.751 215.059C272.104 214.138 270.175 203.494 270.175 203.494C270.175 203.494 267.858 198.243 264.165 197.568C260.472 196.894 256.462 194.779 256.462 194.779" fill="#2F2E41"/>
<path d="M240.307 159.611C243.996 159.611 246.987 156.617 246.987 152.925C246.987 149.232 243.996 146.238 240.307 146.238C236.617 146.238 233.626 149.232 233.626 152.925C233.626 156.617 236.617 159.611 240.307 159.611Z" fill="#A0616A"/>
<path d="M236.805 157.098C236.805 157.098 237.807 161.183 236.281 163.277C234.755 165.37 246.488 164.374 246.488 164.374C246.488 164.374 243.312 157.746 244.484 156.204C245.655 154.663 236.805 157.098 236.805 157.098Z" fill="#A0616A"/>
<path d="M251.802 163.521C253.219 165.028 252.736 173.572 252.736 173.572L251.831 181.203C251.831 181.203 252.914 182.587 252.56 183.14C252.206 183.692 251.627 184.238 252.744 184.497C253.862 184.756 256.437 185.172 255.613 186.386C255.344 186.729 255.055 187.058 254.749 187.37C254.487 187.648 254.174 187.971 253.82 188.33C252.991 189.168 251.938 190.198 250.768 191.284C250.437 191.594 250.098 191.907 249.75 192.222C245.289 196.261 239.742 200.536 238.594 198.485C236.672 195.048 235.337 194.557 235.425 191.631C235.513 188.706 233.039 181.198 233.039 181.198C233.039 181.198 230.163 168.385 234.217 164.566L234.85 163.551C235.145 163.079 235.58 162.712 236.094 162.502C236.608 162.291 237.175 162.248 237.716 162.378C239.694 162.851 242.727 163.504 244.041 163.399C246.072 163.235 245.627 162.399 245.627 162.399C245.627 162.399 250.385 162.014 251.802 163.521Z" fill="#BDFAA3"/>
<path d="M258.066 190.852C258.066 190.852 266.331 192.904 265.119 195.795C263.906 198.687 256.751 193.402 256.751 193.402L258.066 190.852Z" fill="#A0616A"/>
<path d="M236.609 155.371C236.774 155.171 236.611 154.88 236.468 154.665C235.701 153.512 235.555 151.871 236.398 150.773C236.731 150.365 237.147 150.031 237.619 149.796C238.281 149.445 239.003 149.223 239.748 149.142C240.144 149.136 240.536 149.059 240.905 148.914C241.138 148.796 242.238 148.41 242.473 148.298C242.992 148.051 243.714 148.158 244.046 147.689C244.364 147.241 244.067 146.626 243.758 146.171C243.055 145.135 241.275 144.276 240.053 144.004C239.106 143.86 238.138 144.032 237.298 144.493C236.307 144.985 235.367 145.573 234.492 146.25C233.24 147.079 232.179 148.167 231.383 149.441C230.661 150.753 230.487 152.461 231.303 153.717C231.473 153.978 231.68 154.214 231.84 154.483C232.228 155.137 232.298 155.928 232.572 156.638C232.776 157.157 233.087 157.627 233.483 158.018C233.88 158.41 234.354 158.713 234.876 158.91C235.711 159.219 236.739 159.305 237.232 160.047L237.463 158.499C237.523 158.304 237.514 158.094 237.438 157.905C237.363 157.715 237.224 157.558 237.046 157.458L235.863 156.46C235.627 156.3 235.448 156.069 235.351 155.8C235.095 154.731 236.335 155.703 236.609 155.371Z" fill="#2F2E41"/>
<path opacity="0.1" d="M248.459 184.818L253.82 188.33C252.757 189.406 251.321 190.799 249.75 192.222C248.262 191.42 246.744 190.552 245.386 189.68C240.419 186.489 236.16 178.477 234.252 174.59C232.343 170.703 233.897 167.71 233.897 167.71C235.161 167.149 236.498 166.772 237.869 166.591C240.356 166.216 248.459 184.818 248.459 184.818Z" fill="black"/>
<path opacity="0.1" d="M249.167 183.713L254.749 187.37C254.487 187.648 254.174 187.97 253.82 188.33C252.992 189.168 251.938 190.198 250.768 191.284C249.183 190.437 247.546 189.508 246.095 188.575C241.127 185.384 236.868 177.372 234.96 173.485C233.052 169.599 238.186 170.993 238.186 170.993C238.186 170.993 235.522 169.786 238.009 169.411C240.496 169.035 249.167 183.713 249.167 183.713Z" fill="black"/>
<path d="M234.142 167.041C234.142 167.041 232.589 170.035 234.497 173.922C236.405 177.809 240.664 185.821 245.632 189.012C250.599 192.203 257.706 195.346 257.706 195.346C257.706 195.346 258.38 191.65 259.518 191.234L248.704 184.149C248.704 184.149 240.601 165.547 238.114 165.922C236.744 166.104 235.406 166.481 234.142 167.041Z" fill="#BDFAA3"/>
<path d="M232.337 243.359C228.008 243.359 223.776 242.074 220.177 239.667C216.577 237.26 213.771 233.838 212.115 229.835C210.458 225.832 210.025 221.427 210.869 217.178C211.714 212.928 213.798 209.025 216.86 205.961C219.921 202.897 223.821 200.811 228.067 199.965C232.313 199.12 236.714 199.554 240.714 201.212C244.713 202.87 248.132 205.678 250.537 209.281C252.942 212.883 254.226 217.119 254.226 221.452C254.219 227.26 251.911 232.828 247.808 236.935C243.704 241.042 238.14 243.352 232.337 243.359ZM232.337 200.021C228.102 200.021 223.962 201.278 220.441 203.632C216.92 205.987 214.175 209.334 212.554 213.25C210.934 217.166 210.51 221.476 211.336 225.633C212.162 229.79 214.201 233.609 217.196 236.606C220.191 239.603 224.006 241.644 228.16 242.471C232.313 243.298 236.619 242.874 240.532 241.251C244.444 239.629 247.788 236.883 250.141 233.358C252.494 229.834 253.75 225.69 253.75 221.452C253.744 215.77 251.486 210.323 247.471 206.305C243.457 202.287 238.014 200.027 232.337 200.021Z" fill="#3F3D56"/>
<path d="M232.337 225.5C231.537 225.5 230.755 225.262 230.09 224.818C229.425 224.373 228.907 223.741 228.6 223.001C228.294 222.261 228.214 221.447 228.37 220.662C228.526 219.877 228.912 219.155 229.477 218.589C230.043 218.023 230.764 217.638 231.548 217.481C232.333 217.325 233.146 217.405 233.885 217.712C234.624 218.018 235.256 218.537 235.7 219.203C236.145 219.868 236.382 220.651 236.382 221.452C236.381 222.525 235.954 223.554 235.196 224.313C234.438 225.072 233.41 225.499 232.337 225.5ZM232.337 217.88C231.631 217.88 230.941 218.089 230.355 218.482C229.768 218.874 229.31 219.432 229.04 220.085C228.77 220.738 228.699 221.456 228.837 222.149C228.975 222.841 229.315 223.478 229.814 223.977C230.313 224.477 230.949 224.817 231.641 224.955C232.333 225.093 233.051 225.022 233.703 224.752C234.355 224.481 234.912 224.024 235.305 223.436C235.697 222.849 235.906 222.158 235.906 221.452C235.905 220.505 235.529 219.597 234.86 218.927C234.191 218.258 233.283 217.881 232.337 217.88Z" fill="#3F3D56"/>
<path d="M231.861 199.782H231.386V175.256H219.014V174.78H231.861V199.782Z" fill="#3F3D56"/>
<path d="M260.174 207.641H249.578V208.117H260.174V207.641Z" fill="#3F3D56"/>
<path d="M255.415 191.21H231.148V191.686H255.415V191.21Z" fill="#3F3D56"/>
<path d="M272.665 235.815L259.958 207.978L260.39 207.78L272.902 235.187L284.344 230.045L284.539 230.48L272.665 235.815Z" fill="#3F3D56"/>
<path d="M220.203 175.97C223.883 175.97 226.865 175.544 226.865 175.018C226.865 174.492 223.883 174.065 220.203 174.065C216.524 174.065 213.542 174.492 213.542 175.018C213.542 175.544 216.524 175.97 220.203 175.97Z" fill="#3F3D56"/>
<path d="M32.427 344.512C40.745 343.426 48.7425 342.503 56.4197 341.743L53.4665 336.787C54.4928 336.501 58.9375 339.37 58.9375 339.37L55.1838 325.039C60.3139 325.615 62.6993 340.232 62.6993 340.232L68.5167 335.364L65.6512 340.878C89.1435 338.824 109.414 338.191 126.454 338.349L123.926 334.108C124.953 333.822 129.397 336.69 129.397 336.69L125.644 322.359C130.774 322.936 133.159 337.552 133.159 337.552L138.977 332.684L135.942 338.524C150.222 338.922 161.858 339.869 170.835 340.9C168.314 334.308 159.501 327.968 159.501 327.968C166.279 329.739 169.805 332.62 171.628 335.29C171.991 321.643 169.498 308.07 164.309 295.445C164.309 295.445 177.975 321.245 175.912 338.438L175.65 341.492C187.552 343.055 193.523 344.61 193.523 344.61L32.427 344.512Z" fill="#698665"/>
<path d="M113.048 354.36L112.189 364.254L108.32 365.115L107.461 362.534C107.461 362.534 108.965 355.435 108.965 354.145L113.048 354.36Z" fill="#A0616A"/>
<path d="M102.303 347.477C102.303 347.477 104.022 351.779 104.667 352.209C105.311 352.639 102.732 358.232 102.732 358.232L98.8639 357.586C98.8639 357.586 100.153 353.069 99.0788 350.488L102.303 347.477Z" fill="#A0616A"/>
<path d="M103.485 349.95C103.485 349.95 105.096 350.488 105.741 352.854C106.004 353.702 106.22 354.563 106.386 355.435L105.311 357.801H104.667C104.667 357.801 103.592 361.458 103.807 362.749C104.022 364.039 102.303 368.987 99.2937 368.772C96.2849 368.556 96.9296 364.9 96.9296 364.9L98.434 357.371C98.434 357.371 98.434 355.435 98.8639 355.435C99.2937 355.435 102.732 356.081 102.732 356.081V356.726C102.732 356.726 105.204 353.392 103.485 349.95Z" fill="#2F2E41"/>
<path d="M108.965 363.179V361.888C108.965 361.888 113.478 362.534 113.478 363.179V364.685C113.478 364.685 117.347 372.858 113.048 372.858C108.75 372.858 107.89 371.138 107.89 371.138V368.772C107.89 368.772 105.741 367.696 105.741 367.051C105.741 366.405 107.838 360.705 107.838 360.705C107.838 360.705 107.89 364.039 108.965 363.179Z" fill="#2F2E41"/>
<path d="M114.123 256.704C117.921 256.704 121 253.622 121 249.821C121 246.019 117.921 242.938 114.123 242.938C110.325 242.938 107.246 246.019 107.246 249.821C107.246 253.622 110.325 256.704 114.123 256.704Z" fill="#A0616A"/>
<path d="M116.81 255.091C116.81 255.091 115.95 259.178 115.95 259.608C115.95 260.038 111.866 261.974 111.866 261.974L108.213 261.329L106.923 257.457C106.923 257.457 109.073 254.23 109.073 252.94L116.81 255.091Z" fill="#A0616A"/>
<path d="M116.234 257.926C116.234 257.926 114.016 261.544 110.792 260.468C109.895 260.196 109.108 259.647 108.541 258.9C107.975 258.153 107.659 257.246 107.638 256.309L97.0371 260.038L98.9714 275.74L97.252 294.024L98.5415 296.39H117.454C117.454 296.39 118.099 293.164 118.314 293.164C118.529 293.164 118.959 292.518 118.744 292.303C118.529 292.088 118.099 291.873 118.314 291.228C118.529 290.582 118.744 283.484 118.744 283.484L125.191 264.77L116.234 257.926Z" fill="#BDFAA3"/>
<path d="M124.439 298.864L120.571 304.026C120.571 304.026 119.926 298.649 119.066 298.434L121.215 296.928L124.439 298.864Z" fill="#A0616A"/>
<path d="M81.4556 294.777C81.4556 294.777 75.6528 298.434 76.2976 300.8C76.9423 303.166 83.6048 296.713 83.6048 296.498C83.6048 296.283 81.4556 294.777 81.4556 294.777Z" fill="#A0616A"/>
<path d="M117.562 294.777H117.992L118.636 297.788C119.651 298.768 120.354 300.024 120.66 301.401C120.966 302.778 120.86 304.215 120.356 305.532L116.917 328.118L116.487 354.36L112.619 355.435L108.32 354.575L107.246 319.514C107.246 319.514 105.741 316.287 106.386 315.211C107.031 314.136 106.171 314.351 106.171 314.351L101.658 326.827C101.658 326.827 103.162 330.914 101.658 332.204C101.658 332.204 101.873 332.85 101.658 333.065C101.443 333.28 100.368 334.14 100.798 334.571C101.228 335.001 101.443 334.571 101.443 335.216C101.443 335.861 103.592 341.239 102.732 348.122L99.9386 352.424L97.3596 350.918L92.6314 337.582C92.6314 337.582 93.706 335.646 92.6314 335.216C91.5568 334.786 91.3419 334.355 91.7717 333.71C92.2015 333.065 92.2015 330.914 91.5568 329.838C90.9121 328.763 91.5568 327.042 91.5568 327.042L93.9209 305.317C93.9209 305.317 92.8463 299.509 96.4999 296.498L97.1447 294.132C97.1447 294.132 102.518 298.003 117.562 294.777Z" fill="#2F2E41"/>
<path d="M120.087 244.275C120.087 244.275 117.903 239.54 113.718 240.633C109.533 241.726 107.168 243.365 106.986 245.004C106.896 246.37 106.927 247.741 107.077 249.101C107.077 249.101 107.532 245.732 110.443 246.461C113.354 247.189 117.903 246.643 117.903 246.643L118.631 253.199C118.631 253.199 119.45 252.015 120.36 252.744C121.27 253.472 122.998 245.732 120.087 244.275Z" fill="#2F2E41"/>
<path d="M121.968 264.77H125.191C126.095 265.661 126.793 266.739 127.239 267.927C127.684 269.116 127.865 270.388 127.77 271.653L129.275 284.344C129.275 284.344 129.275 290.582 126.696 295.099L123.902 300.477C123.902 300.477 122.827 297.466 119.603 297.896L121.323 293.379V292.303C121.585 291.975 121.802 291.613 121.967 291.228C121.967 291.013 121.108 291.013 121.753 290.582C122.397 290.152 123.042 285.85 123.042 285.85C122.957 285.471 122.812 285.108 122.612 284.775C122.397 284.56 122.827 283.914 122.827 283.914L122.397 283.269L119.603 272.729L121.968 264.77Z" fill="#BDFAA3"/>
<path d="M100.691 259.393L97.0372 260.038C95.7271 261.397 94.7038 263.007 94.0283 264.77L92.309 272.514L89.5151 278.107C89.5151 278.107 86.2913 281.333 83.9272 288.647L80.4885 295.1L84.1421 297.251C84.1421 297.251 94.2432 285.42 95.5327 281.333L101.121 270.578L100.691 259.393Z" fill="#BDFAA3"/>
<path d="M131.961 35.5528C130.477 35.5528 129.027 35.1124 127.793 34.2872C126.559 33.462 125.597 32.2892 125.029 30.917C124.461 29.5448 124.313 28.0348 124.602 26.5781C124.892 25.1213 125.606 23.7832 126.656 22.733C127.705 21.6827 129.042 20.9675 130.498 20.6777C131.953 20.388 133.462 20.5367 134.833 21.1051C136.204 21.6735 137.376 22.636 138.2 23.871C139.025 25.1059 139.465 26.5579 139.465 28.0431C139.462 30.0341 138.671 31.9429 137.265 33.3508C135.858 34.7586 133.951 35.5506 131.961 35.5528ZM131.961 21.7851C130.725 21.7851 129.516 22.1521 128.488 22.8397C127.459 23.5274 126.658 24.5048 126.185 25.6483C125.711 26.7918 125.588 28.0501 125.829 29.264C126.07 30.478 126.666 31.5931 127.54 32.4683C128.415 33.3435 129.529 33.9395 130.742 34.181C131.954 34.4224 133.212 34.2985 134.354 33.8248C135.497 33.3512 136.473 32.5491 137.16 31.5199C137.847 30.4908 138.214 29.2809 138.214 28.0431C138.212 26.384 137.553 24.7933 136.381 23.6201C135.209 22.4468 133.619 21.7869 131.961 21.7851Z" fill="#3F3D56"/>
<path d="M191.88 112.083H179.536V99.7285H191.88V112.083ZM180.486 111.132H190.93V100.679H180.486V111.132Z" fill="#3F3D56"/>
<path d="M79.8133 293.159L80.7095 294.339C80.7177 294.35 80.7213 294.364 80.7195 294.377C80.7176 294.391 80.7105 294.403 80.6996 294.411L80.6703 294.434L85.339 300.581C85.4682 300.752 85.5245 300.966 85.4957 301.178C85.4669 301.39 85.3552 301.581 85.1852 301.71L81.347 304.63C81.2629 304.694 81.1669 304.741 81.0647 304.768C80.9625 304.795 80.856 304.801 80.7512 304.787C80.6465 304.773 80.5456 304.738 80.4543 304.684C80.363 304.631 80.2831 304.56 80.2192 304.476L75.7143 298.544L75.6931 298.56C75.6854 298.566 75.6757 298.568 75.6661 298.567C75.6566 298.566 75.6479 298.561 75.642 298.553L75.132 297.881C75.1291 297.878 75.1269 297.873 75.1257 297.869C75.1245 297.864 75.1242 297.859 75.1248 297.854C75.1255 297.85 75.1271 297.845 75.1295 297.841C75.1319 297.837 75.1351 297.833 75.139 297.83L75.1601 297.814L74.968 297.561L74.9467 297.577C74.9386 297.583 74.9284 297.586 74.9183 297.585C74.9083 297.583 74.8992 297.578 74.8931 297.57L74.39 296.907C74.3839 296.899 74.3813 296.889 74.3826 296.879C74.384 296.869 74.3893 296.86 74.3973 296.854L74.4187 296.838L74.1564 296.492L74.1347 296.509C74.1312 296.512 74.1271 296.514 74.1228 296.515C74.1185 296.516 74.1141 296.516 74.1097 296.515C74.1053 296.515 74.101 296.513 74.0972 296.511C74.0933 296.509 74.09 296.506 74.0873 296.502L73.8128 296.141C73.8073 296.134 73.8049 296.125 73.8061 296.116C73.8073 296.107 73.8119 296.099 73.8191 296.093L73.8408 296.077L73.2849 295.345C73.1558 295.175 73.0994 294.96 73.1282 294.748C73.1571 294.537 73.2687 294.345 73.4387 294.216L77.2768 291.296C77.4468 291.167 77.6611 291.111 77.8726 291.139C78.0841 291.168 78.2755 291.28 78.4047 291.45L79.7117 293.171L79.7409 293.149C79.7518 293.141 79.7656 293.137 79.7791 293.139C79.7927 293.141 79.805 293.148 79.8133 293.159Z" fill="#3F3D56"/>
<path d="M75.7777 292.957L75.1821 293.41C75.1492 293.435 75.1427 293.483 75.1678 293.516L75.1874 293.541C75.2125 293.574 75.2595 293.581 75.2925 293.556L75.888 293.103C75.921 293.078 75.9274 293.031 75.9024 292.998L75.8828 292.972C75.8577 292.939 75.8107 292.932 75.7777 292.957Z" fill="#E6E8EC"/>
<path d="M76.0836 292.941C76.1408 292.941 76.1871 292.895 76.1871 292.838C76.1871 292.78 76.1408 292.734 76.0836 292.734C76.0265 292.734 75.9802 292.78 75.9802 292.838C75.9802 292.895 76.0265 292.941 76.0836 292.941Z" fill="#E6E8EC"/>
<path d="M78.1942 291.81L85.0725 300.868C85.1173 300.927 85.1487 300.995 85.1646 301.067C85.1806 301.139 85.1806 301.214 85.1647 301.286C85.1388 301.405 85.0714 301.511 84.9748 301.584L81.3007 304.379C81.2354 304.429 81.159 304.462 81.0781 304.476C81.0592 304.479 81.0401 304.482 81.0209 304.483C80.9373 304.487 80.8539 304.472 80.7779 304.437C80.702 304.401 80.6358 304.348 80.5851 304.282L73.7068 295.224C73.6662 295.17 73.6365 295.11 73.6195 295.045C73.6024 294.98 73.5983 294.912 73.6073 294.846C73.6164 294.779 73.6385 294.715 73.6723 294.657C73.7061 294.599 73.751 294.548 73.8044 294.508L74.3543 294.089L74.4079 294.16C74.4413 294.204 74.4831 294.241 74.5308 294.269C74.5785 294.297 74.6312 294.315 74.6859 294.322C74.7406 294.33 74.7963 294.326 74.8497 294.312C74.9031 294.298 74.9532 294.274 74.9972 294.24L76.8657 292.819C76.9097 292.786 76.9467 292.744 76.9745 292.696C77.0023 292.648 77.0205 292.595 77.028 292.541C77.0354 292.486 77.032 292.43 77.018 292.377C77.0039 292.323 76.9795 292.273 76.9461 292.229L76.8925 292.159L77.4784 291.713C77.5318 291.672 77.5927 291.642 77.6576 291.625C77.7225 291.608 77.7901 291.604 77.8565 291.613C77.923 291.622 77.987 291.644 78.045 291.678C78.1029 291.712 78.1536 291.757 78.1942 291.81Z" fill="#6C63FF"/>
<path d="M71.3585 282.865C72.3945 282.865 73.2343 282.024 73.2343 280.988C73.2343 279.951 72.3945 279.11 71.3585 279.11C70.3225 279.11 69.4827 279.951 69.4827 280.988C69.4827 282.024 70.3225 282.865 71.3585 282.865Z" fill="#F2F2F2"/>
<path d="M63.2299 272.852C66.6832 272.852 69.4826 270.05 69.4826 266.594C69.4826 263.138 66.6832 260.336 63.2299 260.336C59.7766 260.336 56.9772 263.138 56.9772 266.594C56.9772 270.05 59.7766 272.852 63.2299 272.852Z" fill="#F2F2F2"/>
<path d="M51.975 249.697C58.5363 249.697 63.8552 244.374 63.8552 237.807C63.8552 231.24 58.5363 225.917 51.975 225.917C45.4138 225.917 40.0948 231.24 40.0948 237.807C40.0948 244.374 45.4138 249.697 51.975 249.697Z" fill="#698665"/>
<path d="M21.7301 66.5743C16.1302 67.4452 10.7565 69.4116 5.91591 72.3611C1.0753 75.3106 -3.13746 79.1854 -6.48184 83.7644C-9.82623 88.3434 -12.2367 93.5368 -13.5757 99.0482C-14.9147 104.56 -15.156 110.281 -14.2858 115.886C-10.626 139.457 44.0951 210.616 44.0951 210.616C44.0951 210.616 74.6591 126.192 70.9993 102.621C70.1291 97.0162 68.1644 91.638 65.2174 86.7932C62.2704 81.9485 58.3989 77.7321 53.8238 74.3849C49.2488 71.0376 44.0598 68.6251 38.5531 67.2849C33.0465 65.9448 27.33 65.7033 21.7301 66.5743ZM31.8358 131.66C27.408 132.348 22.8756 131.707 18.8117 129.818C14.7478 127.929 11.3351 124.875 9.00491 121.045C6.67476 117.214 5.53191 112.778 5.72087 108.297C5.90983 103.816 7.42211 99.4922 10.0665 95.8716C12.7109 92.251 16.3686 89.4966 20.5771 87.9566C24.7855 86.4166 29.3558 86.1602 33.7099 87.2199C38.0639 88.2795 42.0062 90.6076 45.0383 93.9097C48.0704 97.2118 50.056 101.34 50.7441 105.771C51.6668 111.714 50.193 117.78 46.647 122.635C43.101 127.49 37.7733 130.736 31.8358 131.66Z" fill="#698665"/>
</g>
<defs>
<clipPath id="clip0_1901_3880">
<rect width="525" height="411" fill="white" transform="translate(-75)"/>
</clipPath>
</defs>
</svg>
