<svg width="183" height="82" viewBox="0 0 183 82" fill="none"
    xmlns="http://www.w3.org/2000/svg">
    <path d="M12.6338 20.936V59H3.36178V20.936H12.6338ZM37.7887 28.4187C41.3312 28.4187 44.1507 29.5754 46.2473 31.8889C48.3801 34.1662 49.4464 37.3111 49.4464 41.3236V59H40.2287V42.5707C40.2287 40.5464 39.7045 38.9739 38.6562 37.8533C37.6079 36.7327 36.1981 36.1724 34.4269 36.1724C32.6556 36.1724 31.2458 36.7327 30.1975 37.8533C29.1492 38.9739 28.6251 40.5464 28.6251 42.5707V59H19.3531V28.744H28.6251V32.7564C29.5649 31.419 30.8301 30.3707 32.4207 29.6116C34.0112 28.8163 35.8005 28.4187 37.7887 28.4187ZM65.1616 33.0276C66.0653 31.6178 67.3124 30.4791 68.9029 29.6116C70.4934 28.744 72.355 28.3102 74.4878 28.3102C76.982 28.3102 79.2413 28.9428 81.2656 30.208C83.2899 31.4732 84.8804 33.2806 86.0371 35.6302C87.23 37.9799 87.8264 40.709 87.8264 43.8178C87.8264 46.9265 87.23 49.6738 86.0371 52.0596C84.8804 54.4092 83.2899 56.2347 81.2656 57.536C79.2413 58.8012 76.982 59.4338 74.4878 59.4338C72.3912 59.4338 70.5296 59 68.9029 58.1324C67.3124 57.2649 66.0653 56.1443 65.1616 54.7707V73.4231H55.8896V28.744H65.1616V33.0276ZM78.3918 43.8178C78.3918 41.5043 77.7411 39.6969 76.4398 38.3956C75.1746 37.0581 73.6021 36.3893 71.7224 36.3893C69.8789 36.3893 68.3064 37.0581 67.0051 38.3956C65.7399 39.733 65.1073 41.5585 65.1073 43.872C65.1073 46.1855 65.7399 48.011 67.0051 49.3484C68.3064 50.6859 69.8789 51.3547 71.7224 51.3547C73.566 51.3547 75.1384 50.6859 76.4398 49.3484C77.7411 47.9748 78.3918 46.1313 78.3918 43.8178ZM90.8472 43.8178C90.8472 40.709 91.4256 37.9799 92.5823 35.6302C93.7752 33.2806 95.3838 31.4732 97.4081 30.208C99.4324 28.9428 101.692 28.3102 104.186 28.3102C106.319 28.3102 108.18 28.744 109.771 29.6116C111.397 30.4791 112.645 31.6178 113.512 33.0276V28.744H122.784V59H113.512V54.7164C112.608 56.1262 111.343 57.2649 109.717 58.1324C108.126 59 106.264 59.4338 104.132 59.4338C101.674 59.4338 99.4324 58.8012 97.4081 57.536C95.3838 56.2347 93.7752 54.4092 92.5823 52.0596C91.4256 49.6738 90.8472 46.9265 90.8472 43.8178ZM113.512 43.872C113.512 41.5585 112.861 39.733 111.56 38.3956C110.295 37.0581 108.741 36.3893 106.897 36.3893C105.053 36.3893 103.481 37.0581 102.18 38.3956C100.914 39.6969 100.282 41.5043 100.282 43.8178C100.282 46.1313 100.914 47.9748 102.18 49.3484C103.481 50.6859 105.053 51.3547 106.897 51.3547C108.741 51.3547 110.295 50.6859 111.56 49.3484C112.861 48.011 113.512 46.1855 113.512 43.872ZM138.764 33.7867C139.848 32.1239 141.204 30.8225 142.831 29.8827C144.457 28.9067 146.265 28.4187 148.253 28.4187V38.2329H145.704C143.391 38.2329 141.656 38.739 140.499 39.7511C139.342 40.7271 138.764 42.4622 138.764 44.9564V59H129.492V28.744H138.764V33.7867ZM171.174 59L161.957 46.312V59H152.685V18.8756H161.957V41.0524L171.12 28.744H182.561L169.982 43.9262L182.67 59H171.174Z" fill="#ECFCE5"/>
    <path d="M13.9791 29.0731C13.9791 29.0731 14.5367 17.3908 25.966 18.7487L13.9791 29.0731Z" fill="#ECFCE5"/>
    <path d="M7.83661 18.2149C10.9949 18.2149 13.5551 15.6546 13.5551 12.4963C13.5551 9.33808 10.9949 6.77783 7.83661 6.77783C4.67834 6.77783 2.11804 9.33808 2.11804 12.4963C2.11804 15.6546 4.67834 18.2149 7.83661 18.2149Z" fill="#BDFAA3"/>
</svg>
