<svg width="194" height="157" viewBox="0 0 194 157" fill="none" xmlns="http://www.w3.org/2000/svg">
<g clip-path="url(#clip0_1201_28)">
<path d="M89.6728 51.5607C77.2204 42.4754 64.1185 33.8603 50.734 25.956L50.0623 25.5594V52.3674H90.7784L89.6728 51.5607ZM50.952 51.476V27.1215C63.6848 34.667 76.1527 42.8542 88.0423 51.476L50.952 51.476ZM152.693 106.654C147.308 101.045 141.783 95.5641 136.119 90.2106C134.558 88.7332 132.986 87.2676 131.406 85.8139C121.758 76.9359 111.793 68.4923 101.511 60.4834L101.391 60.3898H50.0623V107.41H153.419L152.693 106.654ZM50.952 106.518V61.2811H101.086C111.001 69.0071 120.647 77.1654 130.024 85.756C131.652 87.2468 133.27 88.7495 134.876 90.2641C140.49 95.55 145.973 100.968 151.325 106.518H50.952ZM152.693 106.654C147.308 101.045 141.783 95.5641 136.119 90.2106C134.558 88.7332 132.986 87.2676 131.406 85.8139C121.758 76.9359 111.793 68.4923 101.511 60.4834L101.391 60.3898H50.0623V107.41H153.419L152.693 106.654ZM50.952 106.518V61.2811H101.086C111.001 69.0071 120.647 77.1654 130.024 85.756C131.652 87.2468 133.27 88.7495 134.876 90.2641C140.49 95.55 145.973 100.968 151.325 106.518H50.952ZM89.6728 51.5607C77.2204 42.4754 64.1185 33.8603 50.734 25.956L50.0623 25.5594V52.3674H90.7784L89.6728 51.5607ZM50.952 51.476V27.1215C63.6848 34.667 76.1527 42.8542 88.0423 51.476L50.952 51.476ZM89.6728 51.5607C77.2204 42.4754 64.1185 33.8603 50.734 25.956L50.0623 25.5594V52.3674H90.7784L89.6728 51.5607ZM50.952 51.476V27.1215C63.6848 34.667 76.1527 42.8542 88.0423 51.476L50.952 51.476ZM152.693 106.654C147.308 101.045 141.783 95.5641 136.119 90.2106C134.558 88.7332 132.986 87.2676 131.406 85.8139C121.758 76.9359 111.793 68.4923 101.511 60.4834L101.391 60.3898H50.0623V107.41H153.419L152.693 106.654ZM50.952 106.518V61.2811H101.086C111.001 69.0071 120.647 77.1654 130.024 85.756C131.652 87.2468 133.27 88.7495 134.876 90.2641C140.49 95.55 145.973 100.968 151.325 106.518H50.952ZM6.02283 115.432V116.323H41.1645V129.248H6.02283V130.14H42.0543V115.432H6.02283ZM50.0623 138.162V147.194L50.952 147.111V139.053H187.977V138.162L50.0623 138.162ZM187.977 116.323V115.432H50.0623V130.14H187.977V129.248H50.952V116.323L187.977 116.323ZM104.884 51.476C87.8136 38.2847 69.7865 26.3853 50.952 15.8768V6.85168L50.0622 6.93413V16.0291L50.7474 16.7838C69.5052 27.2637 87.4592 39.1264 104.461 52.2738L104.581 52.3674H187.977V51.476L104.884 51.476ZM41.1645 51.476H6.02283V52.3674H42.0543V7.67843L41.1645 7.76088L41.1645 51.476ZM187.977 60.3898H114.662L115.621 61.1786C124.648 68.6194 133.51 76.511 142.21 84.8535C143.446 86.039 144.679 87.2342 145.907 88.439C152.019 94.4224 158.013 100.601 163.887 106.975L164.62 107.41H187.977V106.518H164.676C158.866 100.207 152.93 94.0792 146.868 88.1337C145.655 86.9438 144.439 85.762 143.217 84.5883C134.707 76.4077 126.014 68.6387 117.14 61.2811H187.977V60.3898ZM6.02283 138.162V139.053H41.1645V148.021L42.0543 147.938V138.162H6.02283ZM6.02283 60.3898V61.2811H41.1645V106.518H6.02283V107.41H42.0543V60.3898H6.02283ZM89.6728 51.5607C77.2204 42.4754 64.1185 33.8603 50.734 25.956L50.0622 25.5594V52.3674H90.7784L89.6728 51.5607ZM50.952 51.476V27.1215C63.6847 34.667 76.1527 42.8542 88.0423 51.476L50.952 51.476ZM152.693 106.654C147.308 101.045 141.783 95.5641 136.119 90.2106C134.558 88.7332 132.986 87.2676 131.406 85.8139C121.758 76.9359 111.793 68.4923 101.511 60.4834L101.391 60.3898H50.0623V107.41H153.419L152.693 106.654ZM50.952 106.518V61.2811H101.086C111.001 69.0071 120.647 77.1654 130.024 85.756C131.652 87.2468 133.27 88.7495 134.876 90.2641C140.49 95.55 145.973 100.968 151.325 106.518H50.952ZM89.6728 51.5607C77.2204 42.4754 64.1185 33.8603 50.734 25.956L50.0623 25.5594V52.3674H90.7784L89.6728 51.5607ZM50.952 51.476V27.1215C63.6848 34.667 76.1527 42.8542 88.0423 51.476L50.952 51.476ZM152.693 106.654C147.308 101.045 141.783 95.5641 136.119 90.2106C134.558 88.7332 132.986 87.2676 131.406 85.8139C121.758 76.9359 111.793 68.4923 101.511 60.4834L101.391 60.3898H50.0623V107.41H153.419L152.693 106.654ZM50.952 106.518V61.2811H101.086C111.001 69.0071 120.647 77.1654 130.024 85.756C131.652 87.2468 133.27 88.7495 134.876 90.2641C140.49 95.55 145.973 100.968 151.325 106.518H50.952Z" fill="#EEF2EE"/>
<path d="M99.362 58.6579C99.362 69.9454 78.9608 95.0905 78.9608 95.0905C78.9608 95.0905 58.5596 69.9454 58.5596 58.6579C58.5596 53.2375 60.709 48.0391 64.535 44.2062C68.361 40.3734 73.5501 38.2201 78.9608 38.2201C84.3715 38.2201 89.5607 40.3734 93.3866 44.2062C97.2126 48.0391 99.362 53.2375 99.362 58.6579V58.6579Z" fill="#B3C8B0"/>
<path d="M88.2873 57.7693C88.2873 59.6172 87.7403 61.4236 86.7156 62.96C85.6908 64.4965 84.2342 65.694 82.5301 66.4011C80.8259 67.1083 78.9507 67.2933 77.1416 66.9328C75.3325 66.5723 73.6707 65.6825 72.3664 64.3758C71.0621 63.0692 70.1739 61.4044 69.814 59.5921C69.4541 57.7797 69.6388 55.9011 70.3447 54.1939C71.0506 52.4867 72.246 51.0275 73.7797 50.0009C75.3134 48.9743 77.1165 48.4263 78.9611 48.4263C80.186 48.4258 81.399 48.667 82.5307 49.1364C83.6625 49.6057 84.6908 50.2939 85.557 51.1616C86.4231 52.0293 87.11 53.0595 87.5785 54.1933C88.047 55.327 88.2879 56.5422 88.2873 57.7693V57.7693Z" fill="white"/>
<path d="M78.9608 109.841C81.9981 109.841 84.4603 107.375 84.4603 104.332C84.4603 101.289 81.9981 98.8227 78.9608 98.8227C75.9235 98.8227 73.4614 101.289 73.4614 104.332C73.4614 107.375 75.9235 109.841 78.9608 109.841Z" fill="#B3C8B0"/>
<path d="M131.653 35.17C136.144 35.17 139.784 31.5232 139.784 27.0245C139.784 22.5259 136.144 18.879 131.653 18.879C127.162 18.879 123.522 22.5259 123.522 27.0245C123.522 31.5232 127.162 35.17 131.653 35.17Z" fill="#FFBE40"/>
<path d="M157.151 52.126H117.263C117.213 52.1267 117.163 52.1227 117.114 52.1142L135.979 19.3784C136.094 19.1746 136.261 19.0049 136.463 18.8869C136.665 18.7689 136.895 18.7068 137.129 18.7068C137.362 18.7068 137.592 18.7689 137.794 18.8869C137.996 19.0049 138.163 19.1746 138.278 19.3784L150.939 41.3467L151.546 42.3979L157.151 52.126Z" fill="#EEF2EE"/>
<path opacity="0.2" d="M157.151 52.126H143.532L150.217 42.3977L150.698 41.697L150.939 41.3466L151.546 42.3977L157.151 52.126Z" fill="black"/>
<path d="M179.36 52.126H144.86L151.546 42.3979L152.027 41.6971L160.738 29.0194C161.309 28.1885 162.683 28.1368 163.355 28.8627C163.4 28.9122 163.442 28.9645 163.48 29.0194L179.36 52.126Z" fill="#EEF2EE"/>
<path d="M181.92 98.2725C184.193 98.2725 186.035 96.4267 186.035 94.1499C186.035 91.8731 184.193 90.0273 181.92 90.0273C179.647 90.0273 177.805 91.8731 177.805 94.1499C177.805 96.4267 179.647 98.2725 181.92 98.2725Z" fill="#EEF2EE"/>
<path d="M182.317 106.567H181.474L181.858 93.529L182.317 106.567Z" fill="#CBCBCB"/>
<path d="M181.932 96.0001L182.837 94.7458L181.92 96.3106L181.821 96.1368L181.932 96.0001Z" fill="#CBCBCB"/>
<path d="M181.833 97.2665L180.928 96.0125L181.846 97.577L181.945 97.4032L181.833 97.2665Z" fill="#CBCBCB"/>
<path d="M170.219 94.3165C173.575 94.3165 176.297 91.5905 176.297 88.2278C176.297 84.8651 173.575 82.1391 170.219 82.1391C166.862 82.1391 164.141 84.8651 164.141 88.2278C164.141 91.5905 166.862 94.3165 170.219 94.3165Z" fill="#EEF2EE"/>
<path d="M170.805 106.567H169.56L170.127 87.3108L170.805 106.567Z" fill="#CBCBCB"/>
<path d="M170.237 90.9602L171.573 89.1082L170.219 91.419L170.072 91.1621L170.237 90.9602Z" fill="#CBCBCB"/>
<path d="M170.091 92.8309L168.754 90.9789L170.109 93.2894L170.255 93.0328L170.091 92.8309Z" fill="#CBCBCB"/>
<path d="M29.1116 98.2725C31.3843 98.2725 33.2268 96.4267 33.2268 94.1499C33.2268 91.8731 31.3843 90.0273 29.1116 90.0273C26.8388 90.0273 24.9964 91.8731 24.9964 94.1499C24.9964 96.4267 26.8388 98.2725 29.1116 98.2725Z" fill="#EEF2EE"/>
<path d="M29.5084 106.567H28.6656L29.0497 93.529L29.5084 106.567Z" fill="#CBCBCB"/>
<path d="M29.124 96.0001L30.029 94.7458L29.1116 96.3106L29.0126 96.1368L29.124 96.0001Z" fill="#CBCBCB"/>
<path d="M29.025 97.2665L28.12 96.0125L29.0374 97.577L29.1364 97.4032L29.025 97.2665Z" fill="#CBCBCB"/>
<path d="M17.4103 94.3165C20.767 94.3165 23.4881 91.5905 23.4881 88.2278C23.4881 84.8651 20.767 82.1391 17.4103 82.1391C14.0537 82.1391 11.3326 84.8651 11.3326 88.2278C11.3326 91.5905 14.0537 94.3165 17.4103 94.3165Z" fill="#EEF2EE"/>
<path d="M17.9961 106.567H16.7513L17.319 87.3108L17.9961 106.567Z" fill="#CBCBCB"/>
<path d="M17.4288 90.9602L18.765 89.1082L17.4105 91.419L17.2641 91.1621L17.4288 90.9602Z" fill="#CBCBCB"/>
<path d="M17.2824 92.8309L15.9459 90.9789L17.3007 93.2894L17.447 93.0328L17.2824 92.8309Z" fill="#CBCBCB"/>
</g>
<defs>
<clipPath id="clip0_1201_28">
<rect width="194" height="157" fill="white"/>
</clipPath>
</defs>
</svg>
