<svg width="432" height="192" viewBox="0 0 432 192" fill="none" xmlns="http://www.w3.org/2000/svg">
<path d="M29.824 51.144V141H7.936V51.144H29.824ZM89.206 68.808C97.5687 68.808 104.225 71.5387 109.174 77C114.209 82.376 116.726 89.8 116.726 99.272V141H94.966V102.216C94.966 97.4373 93.7287 93.7253 91.254 91.08C88.7793 88.4347 85.4513 87.112 81.27 87.112C77.0887 87.112 73.7607 88.4347 71.286 91.08C68.8113 93.7253 67.574 97.4373 67.574 102.216V141H45.686V69.576H67.574V79.048C69.7927 75.8907 72.7793 73.416 76.534 71.624C80.2887 69.7467 84.5127 68.808 89.206 68.808ZM153.824 79.688C155.957 76.36 158.901 73.672 162.656 71.624C166.411 69.576 170.805 68.552 175.84 68.552C181.728 68.552 187.061 70.0453 191.84 73.032C196.619 76.0187 200.373 80.2853 203.104 85.832C205.92 91.3787 207.328 97.8213 207.328 105.16C207.328 112.499 205.92 118.984 203.104 124.616C200.373 130.163 196.619 134.472 191.84 137.544C187.061 140.531 181.728 142.024 175.84 142.024C170.891 142.024 166.496 141 162.656 138.952C158.901 136.904 155.957 134.259 153.824 131.016V175.048H131.936V69.576H153.824V79.688ZM185.056 105.16C185.056 99.6987 183.52 95.432 180.448 92.36C177.461 89.2027 173.749 87.624 169.312 87.624C164.96 87.624 161.248 89.2027 158.176 92.36C155.189 95.5173 153.696 99.8267 153.696 105.288C153.696 110.749 155.189 115.059 158.176 118.216C161.248 121.373 164.96 122.952 169.312 122.952C173.664 122.952 177.376 121.373 180.448 118.216C183.52 114.973 185.056 110.621 185.056 105.16ZM214.459 105.16C214.459 97.8213 215.824 91.3787 218.555 85.832C221.371 80.2853 225.168 76.0187 229.947 73.032C234.726 70.0453 240.059 68.552 245.947 68.552C250.982 68.552 255.376 69.576 259.131 71.624C262.971 73.672 265.915 76.36 267.963 79.688V69.576H289.851V141H267.963V130.888C265.83 134.216 262.843 136.904 259.003 138.952C255.248 141 250.854 142.024 245.819 142.024C240.016 142.024 234.726 140.531 229.947 137.544C225.168 134.472 221.371 130.163 218.555 124.616C215.824 118.984 214.459 112.499 214.459 105.16ZM267.963 105.288C267.963 99.8267 266.427 95.5173 263.355 92.36C260.368 89.2027 256.699 87.624 252.347 87.624C247.995 87.624 244.283 89.2027 241.211 92.36C238.224 95.432 236.731 99.6987 236.731 105.16C236.731 110.621 238.224 114.973 241.211 118.216C244.283 121.373 247.995 122.952 252.347 122.952C256.699 122.952 260.368 121.373 263.355 118.216C266.427 115.059 267.963 110.749 267.963 105.288ZM327.574 81.48C330.134 77.5547 333.334 74.4827 337.174 72.264C341.014 69.96 345.281 68.808 349.974 68.808V91.976H343.958C338.497 91.976 334.401 93.1707 331.67 95.56C328.939 97.864 327.574 101.96 327.574 107.848V141H305.686V69.576H327.574V81.48ZM404.084 141L382.324 111.048V141H360.436V46.28H382.324V98.632L403.956 69.576H430.964L401.268 105.416L431.22 141H404.084Z" fill="#82A57D"/>
<path d="M33 68.6316C33 68.6316 34.3161 41.0537 61.297 44.2593L33 68.6316Z" fill="#82A57D"/>
<path d="M18.4996 42.999C25.9551 42.999 31.999 36.955 31.999 29.4994C31.999 22.0439 25.9551 16 18.4996 16C11.044 16 5 22.0439 5 29.4994C5 36.955 11.044 42.999 18.4996 42.999Z" fill="#86E75C"/>
</svg>
